<svg width="23" height="23" viewBox="0 0 23 23" fill="none" xmlns="http://www.w3.org/2000/svg">
<path d="M1.15 2.68335H21.85C22.4851 2.68335 23 3.1982 23 3.83335V19.1667C23 19.8018 22.4852 20.3167 21.85 20.3167H1.15C0.514894 20.3167 0 19.8018 0 19.1667V3.83335C0 3.19824 0.514851 2.68335 1.15 2.68335ZM0.766682 19.1667C0.766682 19.3784 0.938284 19.55 1.15 19.55H21.85C22.0617 19.55 22.2333 19.3784 22.2333 19.1667V3.83335C22.2333 3.62163 22.0617 3.45003 21.85 3.45003H1.15C0.938284 3.45003 0.766682 3.62163 0.766682 3.83335V19.1667Z" fill="white"/>
<path d="M1.88329 4.21803C1.98459 4.20918 2.08526 4.24094 2.16311 4.30635L11.0067 11.7353C11.2919 11.9751 11.7082 11.9751 11.9934 11.7353L20.8368 4.3063C20.9417 4.21826 21.0856 4.19283 21.2143 4.23964C21.343 4.28645 21.437 4.39839 21.4608 4.53329C21.4846 4.66819 21.4347 4.80552 21.3298 4.89357L12.4863 12.3222C11.9163 12.8021 11.0836 12.8021 10.5136 12.3222L1.67018 4.89361C1.59229 4.82825 1.54359 4.73463 1.53474 4.63334C1.52589 4.53204 1.55765 4.43137 1.62306 4.35352C1.68837 4.27558 1.78199 4.22688 1.88329 4.21803Z" fill="white"/>
<path d="M15.6272 12.2695C15.763 12.2392 15.9044 12.2847 15.9969 12.3885L21.3636 18.1385C21.4607 18.238 21.4964 18.3823 21.4568 18.5155C21.4171 18.6488 21.3085 18.7501 21.1728 18.7804C21.0371 18.8107 20.8957 18.7651 20.8031 18.6614L15.4365 12.9114C15.3393 12.8119 15.3037 12.6676 15.3433 12.5344C15.3829 12.4011 15.4915 12.2997 15.6272 12.2695Z" fill="white"/>
<path d="M7.00309 12.3885C7.09559 12.2847 7.23705 12.2392 7.37276 12.2695C7.50846 12.2997 7.61709 12.4011 7.65671 12.5344C7.69633 12.6677 7.66066 12.8119 7.56354 12.9114L2.19686 18.6614C2.05131 18.8104 1.81341 18.816 1.66108 18.6738C1.50875 18.5317 1.49779 18.294 1.63641 18.1385L7.00309 12.3885Z" fill="white"/>
</svg>
