<svg width="22" height="22" viewBox="0 0 22 22" fill="none" xmlns="http://www.w3.org/2000/svg">
<g clip-path="url(#clip0)">
<path d="M21.4228 16.973L16.9699 14.0034C16.4048 13.6296 15.6474 13.7526 15.2296 14.2861L13.9325 15.9538C13.7658 16.1736 13.4628 16.2374 13.2217 16.1034L12.9749 15.9674C12.157 15.5216 11.1393 14.9665 9.08884 12.9153C7.03838 10.8641 6.48223 9.84567 6.03641 9.02925L5.90112 8.78252C5.76532 8.54142 5.82787 8.23711 6.04775 8.06909L7.71435 6.7724C8.2476 6.35459 8.37077 5.59733 7.99738 5.03208L5.02782 0.579198C4.64516 0.00358824 3.87742 -0.169206 3.28501 0.186909L1.42298 1.30543C0.837915 1.64939 0.408678 2.20644 0.225271 2.85986C-0.445243 5.30296 0.0591784 9.51937 6.27034 15.7313C11.2112 20.6717 14.8894 22.0003 17.4176 22.0003C17.9994 22.0028 18.579 21.9271 19.1407 21.7752C19.7942 21.5921 20.3513 21.1628 20.6951 20.5775L21.8147 18.7166C22.1714 18.1241 21.9987 17.3559 21.4228 16.973ZM21.183 18.3405L20.0659 20.2025C19.8191 20.6249 19.4184 20.9355 18.9478 21.0692C16.6924 21.6884 12.752 21.1755 6.78907 15.2125C0.826101 9.24957 0.313258 5.30957 0.932475 3.05383C1.06635 2.58262 1.37731 2.18139 1.80023 1.93419L3.66226 0.817124C3.91931 0.662459 4.25252 0.737429 4.41857 0.987212L6.03168 3.40904L7.3856 5.4397C7.54774 5.68489 7.49447 6.01351 7.26316 6.19494L5.59617 7.49163C5.08887 7.87954 4.944 8.58141 5.25634 9.13846L5.38871 9.37897C5.85725 10.2383 6.43978 11.3073 8.56651 13.4337C10.6932 15.5601 11.7619 16.1426 12.6209 16.6111L12.8617 16.7438C13.4187 17.0561 14.1206 16.9113 14.5085 16.404L15.8052 14.737C15.9867 14.5058 16.3152 14.4526 16.5605 14.6146L21.013 17.5841C21.2629 17.7501 21.3379 18.0834 21.183 18.3405Z" fill="white"/>
</g>
<defs>
<clipPath id="clip0">
<rect width="22" height="22" fill="white"/>
</clipPath>
</defs>
</svg>
