<svg width="20" height="20" viewBox="0 0 20 20" fill="none" xmlns="http://www.w3.org/2000/svg">
<g clip-path="url(#clip0)">
<path d="M19.6912 1.98669C19.4469 1.68793 19.081 1.52344 18.6607 1.52344C18.4323 1.52344 18.1903 1.5715 17.9416 1.66656L1.01196 8.12912C0.113526 8.47198 -0.00747592 8.98651 0.000306048 9.2627C0.00808802 9.53888 0.158082 10.0458 1.07452 10.3374C1.08002 10.3391 1.08551 10.3407 1.091 10.3423L4.60266 11.3472L6.50177 16.7778C6.76071 17.5182 7.34192 17.9781 8.0188 17.9781C8.44559 17.9781 8.86536 17.7992 9.23279 17.4611L11.4049 15.4611L14.5554 17.9979C14.5557 17.9982 14.5561 17.9984 14.5564 17.9987L14.5863 18.0228C14.5891 18.0249 14.592 18.0272 14.5947 18.0293C14.9449 18.3009 15.3271 18.4444 15.7005 18.4445H15.7007C16.4302 18.4445 17.0111 17.9045 17.1803 17.0689L19.9542 3.37204C20.0656 2.82227 19.9722 2.33032 19.6912 1.98669ZM5.77744 11.1563L12.5525 7.69516L8.33389 12.1777C8.26477 12.2511 8.21579 12.341 8.19168 12.4388L7.37824 15.7338L5.77744 11.1563ZM8.43887 16.599C8.4108 16.6248 8.38257 16.6478 8.35434 16.669L9.10904 13.6124L10.4819 14.7179L8.43887 16.599ZM18.8057 3.13934L16.0318 16.8364C16.0051 16.9675 15.9198 17.2725 15.7005 17.2725C15.5922 17.2725 15.4561 17.2134 15.3168 17.1062L11.7468 14.2317C11.7464 14.2313 11.7458 14.2308 11.7451 14.2305L9.62097 12.52L15.7216 6.0376C15.9169 5.83008 15.9346 5.51224 15.7635 5.28427C15.5923 5.0563 15.2821 4.98459 15.0284 5.11429L4.99451 10.2403L1.43509 9.22195L18.3595 2.76138C18.5025 2.70676 18.6023 2.69531 18.6607 2.69531C18.6966 2.69531 18.7604 2.69958 18.784 2.72873C18.8152 2.76672 18.8548 2.89627 18.8057 3.13934Z" fill="white"/>
</g>
<defs>
<clipPath id="clip0">
<rect width="20" height="20" fill="white"/>
</clipPath>
</defs>
</svg>
