<svg width="20" height="20" viewBox="0 0 20 20" fill="none" xmlns="http://www.w3.org/2000/svg">
<path d="M2.92969 17.6172H17.0703C18.6858 17.6172 20 16.3029 20 14.6875V5.3125C20 3.69705 18.6858 2.38281 17.0703 2.38281H2.92969C1.31424 2.38281 0 3.69705 0 5.3125V14.6875C0 16.3029 1.31424 17.6172 2.92969 17.6172ZM1.17188 5.3125C1.17188 4.34326 1.96045 3.55469 2.92969 3.55469H17.0703C18.0396 3.55469 18.8281 4.34326 18.8281 5.3125V14.6875C18.8281 15.6567 18.0396 16.4453 17.0703 16.4453H2.92969C1.96045 16.4453 1.17188 15.6567 1.17188 14.6875V5.3125Z" fill="white"/>
<path d="M7.07031 6.07471V14.0395L14.1211 9.99179L7.07031 6.07471ZM8.24219 8.06628L11.7383 10.0086L8.24219 12.0156V8.06628Z" fill="white"/>
</svg>
