<svg width="354" height="354" viewBox="0 0 354 354" fill="none" xmlns="http://www.w3.org/2000/svg">
<path d="M222.633 277.254C253.132 277.254 277.945 302.067 277.945 332.566C277.945 336.384 281.041 339.48 284.859 339.48C288.677 339.48 291.773 336.384 291.773 332.566C291.773 302.067 316.587 277.254 347.086 277.254C350.904 277.254 354 274.158 354 270.34C354 266.522 350.904 263.426 347.086 263.426C316.587 263.426 291.773 238.613 291.773 208.113C291.773 204.295 288.677 201.199 284.859 201.199C281.041 201.199 277.945 204.295 277.945 208.113C277.945 238.613 253.132 263.426 222.633 263.426C218.815 263.426 215.719 266.522 215.719 270.34C215.719 274.158 218.815 277.254 222.633 277.254ZM284.859 238.239C291.646 252.201 302.998 263.552 316.961 270.34C302.998 277.127 291.647 288.478 284.859 302.441C278.073 288.479 266.721 277.127 252.758 270.34C266.721 263.553 278.073 252.202 284.859 238.239Z" fill="#1B304F"/>
<path d="M6.91406 69.832C25.9761 69.832 41.4844 85.3403 41.4844 104.402C41.4844 108.22 44.5798 111.316 48.3984 111.316C52.2171 111.316 55.3125 108.22 55.3125 104.402C55.3125 85.3403 70.8207 69.832 89.8828 69.832C93.7014 69.832 96.7969 66.7359 96.7969 62.918C96.7969 59.1 93.7014 56.0039 89.8828 56.0039C70.8207 56.0039 55.3125 40.4957 55.3125 21.4336C55.3125 17.6156 52.2171 14.5195 48.3984 14.5195C44.5798 14.5195 41.4844 17.6156 41.4844 21.4336C41.4844 40.4957 25.9761 56.0039 6.91406 56.0039C3.09543 56.0039 0 59.1 0 62.918C0 66.7359 3.09543 69.832 6.91406 69.832ZM48.3984 46.3408C52.4867 53.1235 58.1929 58.8304 64.9749 62.918C58.1922 67.0056 52.486 72.7124 48.3984 79.4951C44.3102 72.7124 38.604 67.0056 31.822 62.918C38.604 58.8304 44.3102 53.1235 48.3984 46.3408Z" fill="#1B304F"/>
<path d="M192.902 210.188C196.721 210.188 199.816 207.092 199.816 203.273C199.816 199.455 196.721 196.359 192.902 196.359C189.084 196.359 185.988 199.455 185.988 203.273C185.988 207.092 189.084 210.188 192.902 210.188Z" fill="#1B304F"/>
<path d="M211.348 187.505C213.295 190.789 217.539 191.871 220.822 189.922C238.88 179.207 259.589 173.543 280.711 173.543C284.529 173.543 287.625 170.447 287.625 166.629C287.625 162.811 284.529 159.715 280.711 159.715C215.9 159.715 163.172 106.987 163.172 42.1758C163.172 38.3578 160.076 35.2617 156.258 35.2617C152.439 35.2617 149.344 38.3578 149.344 42.1758C149.344 106.987 96.6157 159.715 31.8047 159.715C27.9861 159.715 24.8906 162.811 24.8906 166.629C24.8906 170.447 27.9861 173.543 31.8047 173.543C96.6157 173.543 149.344 226.271 149.344 291.082C149.344 294.9 152.439 297.996 156.258 297.996C160.076 297.996 163.172 294.9 163.172 291.082C163.172 269.96 168.836 249.251 179.551 231.193C181.5 227.909 180.418 223.667 177.134 221.719C173.848 219.768 169.607 220.852 167.66 224.136C162.983 232.017 159.168 240.346 156.253 248.979C143.149 210.346 112.528 179.73 73.894 166.629C112.533 153.527 143.156 122.904 156.258 84.2651C169.359 122.9 199.975 153.52 238.607 166.624C229.975 169.539 221.645 173.354 213.764 178.031C210.481 179.98 209.399 184.221 211.348 187.505Z" fill="#1B304F"/>
</svg>
