<svg width="67" height="68" viewBox="0 0 67 68" fill="none" xmlns="http://www.w3.org/2000/svg">
<path d="M60.1901 49.3941C60.2623 49.3097 60.3182 49.2126 60.355 49.1078C63.0792 44.4026 64.5137 39.0619 64.5137 33.625C64.5137 28.1881 63.0792 22.8474 60.355 18.1422C60.3182 18.0374 60.2623 17.9403 60.1901 17.8559C56.1612 11.0617 49.7012 6.05211 42.1179 3.8414C42.0407 3.80622 41.9589 3.78208 41.875 3.76969C36.3985 2.22505 30.6015 2.22505 25.125 3.76969C25.0424 3.78141 24.9617 3.8043 24.8853 3.83773C17.3 6.04831 10.8386 11.0594 6.80992 17.8559C6.73771 17.9403 6.6818 18.0374 6.64504 18.1422C3.92083 22.8474 2.4863 28.1881 2.4863 33.625C2.4863 39.0619 3.92083 44.4026 6.64504 49.1078C6.6818 49.2126 6.73771 49.3097 6.80992 49.3941C10.8355 56.1854 17.2903 61.1943 24.8685 63.4075C24.9486 63.4433 25.0334 63.4674 25.1203 63.4793C30.5984 65.0248 36.3974 65.0248 41.8755 63.4793C41.9669 63.4678 42.056 63.4425 42.1399 63.4044C49.7143 61.1898 56.1656 56.1824 60.1901 49.3941ZM34.416 62.7836V49.7207H46.933C45.5721 54.6986 43.6139 58.8348 41.2322 61.7598C39.0088 62.3701 36.7206 62.7138 34.416 62.7836ZM25.7678 61.7587C23.3861 58.8348 21.428 54.6991 20.067 49.7197H32.584V62.7826C30.2794 62.7128 27.9912 62.3691 25.7678 61.7587ZM4.34139 34.54H8.375V41.7383C8.37514 41.9812 8.47169 42.2141 8.64345 42.3858C8.81521 42.5576 9.04812 42.6542 9.29102 42.6543H16.784C17.0269 44.446 17.342 46.198 17.7262 47.8887H8.0557C5.75659 43.8052 4.48206 39.2251 4.34139 34.541V34.54ZM8.0578 19.3603H17.7267C17.342 21.051 17.0269 22.8034 16.7846 24.5947H9.29102C9.17065 24.5947 9.05149 24.6185 8.94031 24.6646C8.82914 24.7107 8.72814 24.7783 8.64308 24.8635C8.55802 24.9486 8.49056 25.0497 8.44457 25.1609C8.39857 25.2722 8.37493 25.3914 8.375 25.5117V32.709H4.34139C4.48206 28.0249 5.75659 23.4448 8.0557 19.3613L8.0578 19.3603ZM32.584 4.46638V17.5293H20.067C21.428 12.5514 23.3861 8.41519 25.7678 5.49023C27.9912 4.87986 30.2794 4.53617 32.584 4.46638ZM41.2322 5.49127C43.6139 8.41519 45.5721 12.5509 46.933 17.5303H34.416V4.46638C36.7207 4.53651 39.0088 4.88056 41.2322 5.49127ZM62.6586 32.71H58.625V25.5117C58.6249 25.2688 58.5283 25.0359 58.3566 24.8641C58.1848 24.6924 57.9519 24.5958 57.709 24.5957H50.216C49.9731 22.804 49.658 21.052 49.2738 19.3613H58.9443C61.2434 23.4448 62.518 28.0249 62.6586 32.709V32.71ZM58.9422 47.8897H49.2733C49.658 46.199 49.9731 44.4465 50.2155 42.6553H57.709C57.8294 42.6553 57.9485 42.6315 58.0597 42.5854C58.1709 42.5392 58.2719 42.4717 58.3569 42.3865C58.442 42.3014 58.5094 42.2003 58.5554 42.0891C58.6014 41.9778 58.6251 41.8586 58.625 41.7383V34.541H62.6586C62.518 39.2251 61.2434 43.8052 58.9443 47.8887L58.9422 47.8897ZM34.4139 47.8897V42.6553H48.3656C48.1149 44.4513 47.7899 46.2037 47.391 47.8897H34.4139ZM10.207 40.8223V26.4277H56.793V40.8223H10.207ZM48.3656 24.5957H34.416V19.3613H47.3926C47.7899 21.0468 48.116 22.7998 48.3656 24.5957ZM32.5824 19.3613V24.5957H18.6344C18.8851 22.7998 19.2102 21.0473 19.609 19.3613H32.5824ZM18.6344 42.6543H32.584V47.8887H19.6074C19.2102 46.2027 18.8841 44.4502 18.6344 42.6543ZM44.2075 60.7652C46.3104 57.3451 47.8697 53.6192 48.8294 49.7207H57.8268C54.5183 54.704 49.7657 58.5569 44.2059 60.7631L44.2075 60.7652ZM57.8268 17.5293H48.8278C47.8676 13.6309 46.3084 9.90511 44.2059 6.48476C49.7653 8.69207 54.5173 12.5457 57.8252 17.5293H57.8268ZM22.7957 6.48476C20.6931 9.90505 19.1339 13.6309 18.1738 17.5293H9.17481C12.4828 12.5461 17.2349 8.69301 22.7941 6.48633L22.7957 6.48476ZM9.17481 49.7207H18.1722C19.1319 53.6192 20.6909 57.345 22.7936 60.7652C17.2344 58.5578 12.4826 54.7042 9.17481 49.7207Z" fill="#E3B080"/>
<path d="M23.9677 35.2937L22.1472 29.7646H20.6187L18.7872 35.2937L17.1353 29.7646H15.5953L18.0455 37.4854H19.4389L21.383 31.7542L23.316 37.4854H24.7209L27.1591 29.7646H25.6197L23.9677 35.2937Z" fill="#E3B080"/>
<path d="M35.4388 37.4854H36.8432L39.2819 29.7646H37.7419L36.0905 35.2937L34.27 29.7646H32.7415L30.9095 35.2937L29.2581 29.7646H27.7181L30.1678 37.4854H31.5617L33.5058 31.7542L35.4388 37.4854Z" fill="#E3B080"/>
<path d="M43.6845 37.4854L45.628 31.7542L47.5611 37.4854H48.966L51.4047 29.7646H49.8647L48.2128 35.2937L46.3923 29.7646H44.8638L43.0323 35.2937L41.3803 29.7646H39.8409L42.2906 37.4854H43.6845Z" fill="#E3B080"/>
</svg>
