<svg width="67" height="68" viewBox="0 0 67 68" fill="none" xmlns="http://www.w3.org/2000/svg">
<g clip-path="url(#clip0)">
<path d="M27.1384 36.7719C27.1384 36.2299 26.699 35.7905 26.157 35.7905H4.12835C2.93426 35.7905 1.96289 34.8191 1.96289 33.625V4.25335C1.96289 3.05926 2.93426 2.08789 4.12835 2.08789H33.5C34.6941 2.08789 35.6655 3.05926 35.6655 4.25335V26.282C35.6655 26.824 36.1049 27.2634 36.6469 27.2634C37.1889 27.2634 37.6284 26.824 37.6284 26.282V4.25335C37.6284 1.97692 35.7764 0.125 33.5 0.125H4.12835C1.85192 0.125 0 1.97692 0 4.25335V33.625C0 35.9014 1.85192 37.7534 4.12835 37.7534H26.157C26.699 37.7534 27.1384 37.3139 27.1384 36.7719Z" fill="#E3B080"/>
<path d="M62.8717 29.4966H54.4798C53.9378 29.4966 53.4983 29.936 53.4983 30.478C53.4983 31.02 53.9378 31.4595 54.4798 31.4595H62.8717C64.0658 31.4595 65.0371 32.4308 65.0371 33.6249V62.9966C65.0371 64.1907 64.0658 65.1621 62.8717 65.1621H33.5C32.3059 65.1621 31.3345 64.1907 31.3345 62.9966V33.6249C31.3345 32.4308 32.3059 31.4595 33.5 31.4595H50.2839C50.8259 31.4595 51.2653 31.02 51.2653 30.478C51.2653 29.936 50.8259 29.4966 50.2839 29.4966H33.5C31.2236 29.4966 29.3716 31.3485 29.3716 33.6249V62.9966C29.3716 65.273 31.2236 67.125 33.5 67.125H62.8717C65.1481 67.125 67 65.273 67 62.9966V33.6249C67 31.3485 65.1481 29.4966 62.8717 29.4966Z" fill="#E3B080"/>
<path d="M28.2551 10.6148H19.7956V9.49829C19.7956 8.95627 19.3562 8.51685 18.8142 8.51685C18.2722 8.51685 17.8328 8.95627 17.8328 9.49829V10.6148H9.37335C8.83133 10.6148 8.39191 11.0542 8.39191 11.5962C8.39191 12.1382 8.83133 12.5777 9.37335 12.5777H23.8262C23.2611 14.3932 21.8449 18.0545 18.8095 21.7089C16.9557 19.4793 15.7 17.238 14.8683 15.3854C14.6462 14.891 14.0657 14.67 13.5709 14.8919C13.0764 15.114 12.8555 15.6947 13.0775 16.1893C13.9962 18.2358 15.3973 20.725 17.4869 23.1875C15.9973 24.7328 14.1936 26.2311 12.0151 27.5383C11.5503 27.8172 11.3996 28.42 11.6786 28.8848C11.8626 29.1916 12.1876 29.3614 12.521 29.3614C12.6929 29.3614 12.867 29.3163 13.0251 29.2214C15.3345 27.8357 17.2421 26.2505 18.8091 24.6404C20.3938 26.2675 22.3032 27.8415 24.603 29.2214C24.7611 29.3163 24.9353 29.3614 25.1071 29.3614C25.4405 29.3614 25.7656 29.1916 25.9496 28.8848C26.2284 28.42 26.0777 27.8172 25.613 27.5383C23.4308 26.2291 21.6253 24.7318 20.1326 23.1853C21.6753 21.3692 22.8069 19.5882 23.612 18.093C24.9149 15.6734 25.5805 13.6395 25.8748 12.5775H28.2551C28.7971 12.5775 29.2365 12.1381 29.2365 11.5961C29.2365 11.0541 28.7972 10.6148 28.2551 10.6148Z" fill="#E3B080"/>
<path d="M49.5217 38.7618C49.3034 38.2311 48.7919 37.8884 48.2182 37.8884C48.2178 37.8884 48.2173 37.8884 48.2167 37.8884C47.6425 37.889 47.131 38.2327 46.9136 38.7643C46.9106 38.7716 46.9077 38.7791 46.9049 38.7864L39.8148 57.4022C39.6219 57.9087 39.876 58.4757 40.3826 58.6686C40.4976 58.7125 40.6156 58.7331 40.7317 58.7331C41.1272 58.7331 41.5 58.4924 41.649 58.1007L43.1741 54.0965H53.2111L54.7212 58.098C54.9127 58.605 55.4787 58.8611 55.986 58.6697C56.4931 58.4784 56.7492 57.912 56.5577 57.4049L49.5321 38.7883C49.5289 38.7796 49.5253 38.7707 49.5217 38.7618ZM43.9218 52.1339L48.2157 40.8596L52.4705 52.1339H43.9218Z" fill="#E3B080"/>
<path d="M26.746 53.8197L22.5501 50.6728C22.1166 50.3476 21.5013 50.4355 21.1761 50.8691C20.8509 51.3026 20.9388 51.9179 21.3724 52.2431L23.2128 53.6234H19.8632C16.3554 53.6234 13.5017 50.7696 13.5017 47.2619V40.9685C13.5017 40.4265 13.0623 39.9871 12.5203 39.9871C11.9782 39.9871 11.5388 40.4265 11.5388 40.9685V47.2619C11.5388 51.8521 15.2732 55.5863 19.8632 55.5863H23.2128L21.3724 56.9666C20.9388 57.2918 20.8509 57.9071 21.1761 58.3406C21.369 58.5977 21.6637 58.7332 21.962 58.7332C22.167 58.7332 22.3736 58.6692 22.5501 58.5369L26.746 55.39C26.9932 55.2046 27.1386 54.9138 27.1386 54.6048C27.1386 54.2959 26.9932 54.005 26.746 53.8197Z" fill="#E3B080"/>
<path d="M40.254 13.4304L44.4499 16.5773C44.6264 16.7097 44.8331 16.7736 45.038 16.7736C45.3363 16.7736 45.6312 16.638 45.8239 16.381C46.1491 15.9475 46.0612 15.3322 45.6276 15.007L43.7872 13.6267H47.1368C50.6447 13.6267 53.4983 16.4805 53.4983 19.9882V26.2816C53.4983 26.8236 53.9377 27.263 54.4797 27.263C55.0218 27.263 55.4612 26.8236 55.4612 26.2816V19.9882C55.4612 15.398 51.7269 11.6638 47.1368 11.6638H43.7872L45.6276 10.2835C46.0612 9.95831 46.1491 9.34301 45.8239 8.90948C45.4986 8.47581 44.8836 8.388 44.4499 8.71319L40.254 11.8601C40.0068 12.0455 39.8615 12.3363 39.8615 12.6453C39.8615 12.9542 40.0068 13.2451 40.254 13.4304Z" fill="#E3B080"/>
</g>
<defs>
<clipPath id="clip0">
<rect width="67" height="67" fill="white" transform="translate(0 0.125)"/>
</clipPath>
</defs>
</svg>
