<svg width="67" height="67" viewBox="0 0 67 67" fill="none" xmlns="http://www.w3.org/2000/svg">
<g clip-path="url(#clip0)">
<path d="M43.1066 21.4516C41.6924 14.8476 37.9603 9.92245 32.8296 7.90504C22.5929 3.88028 9.6127 12.2068 3.90565 26.465C2.35406 30.2933 1.46055 34.3563 1.26269 38.4823C-0.296443 52.5858 9.87283 65.283 23.9764 66.8423C38.0799 68.4016 50.7771 58.2323 52.3363 44.1287C53.2906 35.4954 49.8185 26.9646 43.1066 21.4516ZM45.148 55.9046C40.6993 61.4974 33.9439 64.7576 26.7975 64.7601C13.848 64.7453 3.3541 54.2514 3.3393 41.3019C3.3414 40.417 3.39138 39.5329 3.48899 38.6533C3.67218 34.7538 4.51445 30.9134 5.98003 27.2951C10.3656 16.3356 19.2317 9.11384 27.3348 9.11384C28.9314 9.10783 30.5148 9.40302 32.0019 9.98403C36.5818 11.7847 39.7789 16.1535 40.992 22.2873C41.0436 22.5463 41.1852 22.7785 41.3919 22.943C51.5313 31.0078 53.2129 45.7652 45.148 55.9046Z" fill="#E3B080"/>
<path d="M21.2122 14.4922C18.1276 14.4922 15.6269 16.9929 15.6269 20.0775C15.6306 23.1606 18.1291 25.6591 21.2122 25.6628C24.2968 25.6628 26.7975 23.1621 26.7975 20.0775C26.7975 16.9929 24.297 14.4922 21.2122 14.4922ZM21.2122 23.4286C19.3614 23.4286 17.8611 21.9283 17.8611 20.0775C17.8611 18.2267 19.3614 16.7263 21.2122 16.7263C23.0631 16.7263 24.5634 18.2267 24.5634 20.0775C24.5634 21.9283 23.0631 23.4286 21.2122 23.4286Z" fill="#E3B080"/>
<path d="M24.7975 51.3551C21.7129 51.3551 19.2122 53.8558 19.2122 56.9404C19.2122 60.025 21.7129 62.5257 24.7975 62.5257C27.8821 62.5257 30.3828 60.025 30.3828 56.9404C30.3792 53.8573 27.8807 51.3589 24.7975 51.3551ZM24.7975 60.2916C22.9467 60.2916 21.4463 58.7912 21.4463 56.9404C21.4463 55.0896 22.9467 53.5892 24.7975 53.5892C26.6483 53.5892 28.1487 55.0896 28.1487 56.9404C28.1487 58.7912 26.6483 60.2916 24.7975 60.2916Z" fill="#E3B080"/>
<path d="M13.5099 42.7699C10.4253 42.7699 7.92459 45.2706 7.92459 48.3552C7.92459 51.4398 10.4253 53.9405 13.5099 53.9405C16.5945 53.9405 19.0952 51.4398 19.0952 48.3552C19.0915 45.2721 16.5931 42.7737 13.5099 42.7699ZM13.5099 51.7064C11.6591 51.7064 10.1587 50.206 10.1587 48.3552C10.1587 46.5044 11.6591 45.004 13.5099 45.004C15.3607 45.004 16.8611 46.5044 16.8611 48.3552C16.8611 50.206 15.3607 51.7064 13.5099 51.7064Z" fill="#E3B080"/>
<path d="M13.0416 27.5992C9.95703 27.5992 7.45636 30.0999 7.45636 33.1845C7.45636 36.2691 9.95703 38.7698 13.0416 38.7698C16.1247 38.7662 18.6233 36.2676 18.6269 33.1845C18.6269 30.0999 16.1264 27.5992 13.0416 27.5992ZM13.0416 36.5357C11.1908 36.5357 9.69048 35.0354 9.69048 33.1845C9.69048 31.3337 11.1908 29.8334 13.0416 29.8334C14.8925 29.8334 16.3928 31.3337 16.3928 33.1845C16.3928 35.0354 14.8925 36.5357 13.0416 36.5357Z" fill="#E3B080"/>
<path d="M65.8945 12.5776C65.8945 8.8075 60.6991 1.29529 60.106 0.446323C59.7127 -0.0583075 58.9848 -0.14865 58.4802 0.244555C58.405 0.3032 58.3371 0.371062 58.2784 0.446323C57.6853 1.29082 52.4898 8.8075 52.4898 12.5776C52.4653 14.7589 53.3476 16.8525 54.9262 18.3583C54.7967 18.5422 54.7262 18.7612 54.724 18.9861L55.841 65.9025C55.855 66.5094 56.3511 66.994 56.9581 66.9939H61.4263C62.0333 66.994 62.5294 66.5094 62.5434 65.9025L63.6604 18.9861C63.6582 18.7612 63.5877 18.5422 63.4582 18.3583C65.0368 16.8527 65.9193 14.759 65.8945 12.5776ZM60.3349 64.7598H58.0494L57.0921 24.5457H61.2923L60.3349 64.7598ZM61.3459 22.3116H57.0385L56.9849 20.0775H61.3995L61.3459 22.3116ZM59.1922 17.8434C56.728 17.8434 54.724 15.4819 54.724 12.5776C54.724 10.4094 57.4261 5.79815 59.1922 3.08705C60.9583 5.79703 63.6604 10.4071 63.6604 12.582C63.6604 15.4819 61.6564 17.8434 59.1922 17.8434Z" fill="#E3B080"/>
</g>
<defs>
<clipPath id="clip0">
<rect width="67" height="67" fill="white"/>
</clipPath>
</defs>
</svg>
