<svg width="64" height="59" viewBox="0 0 64 59" fill="none" xmlns="http://www.w3.org/2000/svg">
<g clip-path="url(#clip0)">
<path d="M60.8 0.375H3.2C1.43575 0.375 0 1.67615 0 3.275V9.075V55.475C0 57.0739 1.43575 58.375 3.2 58.375H60.8C62.5643 58.375 64 57.0739 64 55.475V9.075V3.275C64 1.67615 62.5643 0.375 60.8 0.375ZM2.13337 3.275C2.13337 2.74235 2.61125 2.30837 3.2 2.30837H60.8C61.3887 2.30837 61.8666 2.74235 61.8666 3.275V8.10837H2.13337V3.275ZM61.8666 55.475C61.8666 56.0076 61.3887 56.4416 60.8 56.4416H3.2C2.61125 56.4416 2.13337 56.0076 2.13337 55.475V10.0416H61.8667V55.475H61.8666Z" fill="#E3B080"/>
<path d="M5.33335 4.24158C4.74347 4.24158 4.26672 4.67465 4.26672 5.20821C4.26672 5.74176 4.74347 6.17484 5.33335 6.17484C5.92322 6.17484 6.39997 5.74176 6.39997 5.20821C6.39997 4.67465 5.92322 4.24158 5.33335 4.24158Z" fill="#E3B080"/>
<path d="M9.60001 4.24158C9.01014 4.24158 8.53339 4.67465 8.53339 5.20821C8.53339 5.74176 9.01014 6.17484 9.60001 6.17484C10.1899 6.17484 10.6666 5.74176 10.6666 5.20821C10.6666 4.67465 10.1899 4.24158 9.60001 4.24158Z" fill="#E3B080"/>
<path d="M13.8666 4.24158C13.2767 4.24158 12.8 4.67465 12.8 5.20821C12.8 5.74176 13.2767 6.17484 13.8666 6.17484C14.4565 6.17484 14.9332 5.74176 14.9332 5.20821C14.9334 4.67465 14.4565 4.24158 13.8666 4.24158Z" fill="#E3B080"/>
<path d="M7.4666 24.9419V28.4084C7.4666 30.5409 9.38022 32.275 11.7332 32.275C12.3231 32.275 12.7998 31.842 12.7998 31.3084C12.7998 30.7749 12.3231 30.3418 11.7332 30.3418C10.5567 30.3418 9.59985 29.4747 9.59985 28.4084V24.5418C9.59985 24.2856 9.48785 24.0391 9.28735 23.8584L7.9081 22.6084L9.28747 21.3585C9.48797 21.1777 9.59997 20.9312 9.59997 20.675V16.8084C9.59997 15.7422 10.5567 14.875 11.7333 14.875C12.3232 14.875 12.8 14.442 12.8 13.9084C12.8 13.3748 12.3232 12.9418 11.7333 12.9418C9.38022 12.9418 7.46672 14.676 7.46672 16.8084V20.2749L5.64597 21.925C5.22885 22.303 5.22885 22.9139 5.64597 23.2918L7.4666 24.9419Z" fill="#E3B080"/>
<path d="M9.59998 36.1417C9.59998 36.6752 10.0767 37.1083 10.6666 37.1083C11.8474 37.1083 12.8085 37.9754 12.8085 39.0398L12.8 42.9065C12.7989 43.1636 12.9109 43.4101 13.1125 43.5918L14.4917 44.8418L13.1125 46.0916C12.912 46.2724 12.8 46.5189 12.8 46.7751V50.6417C12.8 51.7079 11.8432 52.5751 10.6666 52.5751C10.0767 52.5751 9.59998 53.0081 9.59998 53.5417C9.59998 54.0752 10.0767 54.5083 10.6666 54.5083C13.0197 54.5083 14.9332 52.7741 14.9332 50.6417V47.1752L16.754 45.5251C17.1711 45.1472 17.1711 44.5362 16.754 44.1583L14.9342 42.5082L14.9417 39.0417C14.9417 36.9092 13.0239 35.175 10.6665 35.175C10.0767 35.175 9.59998 35.6081 9.59998 36.1417Z" fill="#E3B080"/>
<path d="M20.8715 32.1803C21.0209 32.2451 21.1776 32.275 21.3323 32.275C21.7301 32.275 22.1109 32.0729 22.2944 31.7259C22.5504 31.2444 22.3264 30.6674 21.7951 30.4364C19.9722 29.6447 18.1332 26.9178 18.1332 22.6083C18.1332 18.1336 20.1269 15.5846 21.8346 14.7619C22.3541 14.5116 22.5525 13.9258 22.2751 13.454C21.9978 12.9823 21.3525 12.8034 20.8319 13.0548C18.496 14.1809 16 17.282 16 22.6083C16 28.1115 18.6251 31.2039 20.8715 32.1803Z" fill="#E3B080"/>
<path d="M25.0986 30.4548C24.5791 30.7052 24.3808 31.2909 24.6581 31.7627C24.8501 32.0895 25.2193 32.2751 25.601 32.2751C25.7695 32.2751 25.9413 32.2384 26.1013 32.1621C28.4373 31.0359 30.9333 27.9349 30.9333 22.6085C30.9333 17.1053 28.3081 14.0129 26.0618 13.0366C25.5274 12.8046 24.8926 13.0095 24.6389 13.4909C24.3829 13.9724 24.6069 14.5494 25.1381 14.7804C26.961 15.5721 28.8 18.299 28.8 22.6085C28.8 27.083 26.8064 29.6322 25.0986 30.4548Z" fill="#E3B080"/>
</g>
<defs>
<clipPath id="clip0">
<rect width="64" height="58" fill="white" transform="translate(0 0.375)"/>
</clipPath>
</defs>
</svg>
