<svg width="67" height="68" viewBox="0 0 67 68" fill="none" xmlns="http://www.w3.org/2000/svg">
<path d="M63.5977 7.30627H3.40234C3.15944 7.30641 2.92653 7.40297 2.75478 7.57472C2.58302 7.74648 2.48647 7.97939 2.48633 8.22229V59.1569C2.48757 59.3991 2.58461 59.631 2.75625 59.8018C2.92789 59.9727 3.16017 60.0686 3.40234 60.0688H63.5977C63.8406 60.0686 64.0735 59.9721 64.2452 59.8003C64.417 59.6286 64.5135 59.3957 64.5137 59.1528V8.2202C64.513 7.97766 64.4162 7.74528 64.2445 7.57398C64.0728 7.40268 63.8402 7.30641 63.5977 7.30627ZM4.31836 9.13831H62.6816V14.7061H4.31836V9.13831ZM4.31836 58.2409V16.5381H62.6816V58.2367L4.31836 58.2409Z" fill="#E3B080"/>
<path d="M43.4233 10.3385C43.1103 10.3385 42.8042 10.4313 42.5439 10.6053C42.2836 10.7792 42.0807 11.0264 41.9609 11.3156C41.8411 11.6049 41.8098 11.9231 41.8709 12.2302C41.9319 12.5372 42.0827 12.8193 42.3041 13.0406C42.5254 13.262 42.8075 13.4128 43.1145 13.4738C43.4216 13.5349 43.7398 13.5036 44.0291 13.3838C44.3183 13.264 44.5655 13.0611 44.7395 12.8008C44.9134 12.5405 45.0062 12.2344 45.0062 11.9214C45.0062 11.5016 44.8394 11.099 44.5426 10.8021C44.2458 10.5053 43.8431 10.3385 43.4233 10.3385Z" fill="#E3B080"/>
<path d="M49.6177 10.3385C49.3046 10.3384 48.9985 10.4311 48.7382 10.605C48.4778 10.7789 48.2748 11.026 48.1549 11.3153C48.0351 11.6045 48.0036 11.9228 48.0647 12.2299C48.1257 12.5369 48.2764 12.819 48.4977 13.0405C48.7191 13.2619 49.0011 13.4127 49.3082 13.4738C49.6152 13.5349 49.9335 13.5036 50.2228 13.3838C50.5121 13.264 50.7593 13.0611 50.9333 12.8008C51.1072 12.5405 51.2001 12.2345 51.2001 11.9214C51.2001 11.5017 51.0334 11.0991 50.7366 10.8023C50.4399 10.5055 50.0374 10.3386 49.6177 10.3385Z" fill="#E3B080"/>
<path d="M55.8115 10.3385C55.4984 10.3384 55.1923 10.4311 54.932 10.605C54.6716 10.7789 54.4686 11.026 54.3487 11.3153C54.2288 11.6045 54.1974 11.9228 54.2584 12.2299C54.3195 12.5369 54.4702 12.819 54.6915 13.0405C54.9129 13.2619 55.1949 13.4127 55.502 13.4738C55.809 13.5349 56.1273 13.5036 56.4166 13.3838C56.7059 13.264 56.9531 13.0611 57.127 12.8008C57.301 12.5405 57.3938 12.2345 57.3938 11.9214C57.3939 11.7135 57.353 11.5077 57.2735 11.3157C57.1941 11.1236 57.0775 10.9491 56.9306 10.8021C56.7836 10.6552 56.6092 10.5386 56.4172 10.459C56.2251 10.3794 56.0193 10.3385 55.8115 10.3385Z" fill="#E3B080"/>
<path d="M51.0462 28.0867L37.9424 41.1915C37.8951 41.2391 37.8532 41.2917 37.8173 41.3485C37.8095 41.3616 37.8037 41.3762 37.7959 41.3893C37.7678 41.4394 37.7443 41.492 37.7257 41.5463C37.7226 41.5563 37.7163 41.5647 37.7132 41.5746L36.0675 47.043C36.0198 47.2014 36.016 47.3698 36.0564 47.5303C36.0968 47.6907 36.1799 47.8373 36.2968 47.9543C36.4138 48.0713 36.5603 48.1545 36.7207 48.1949C36.8812 48.2354 37.0496 48.2316 37.208 48.1841L42.6785 46.541C42.689 46.5378 42.6973 46.5316 42.7073 46.5279C42.7617 46.5099 42.8143 46.4868 42.8643 46.4588C42.8785 46.451 42.8931 46.4447 42.9067 46.4363C42.9634 46.4003 43.016 46.3584 43.0638 46.3112L56.1649 33.2075C56.5011 32.8714 56.7679 32.4723 56.9499 32.0331C57.1319 31.594 57.2256 31.1232 57.2257 30.6478C57.2258 30.1724 57.1323 29.7016 56.9504 29.2624C56.7686 28.8231 56.502 28.4239 56.1659 28.0877C55.8298 27.7515 55.4308 27.4847 54.9916 27.3027C54.5524 27.1207 54.0817 27.027 53.6063 27.0269C53.1308 27.0268 52.6601 27.1203 52.2208 27.3021C51.7816 27.484 51.3824 27.7506 51.0462 28.0867ZM38.3125 45.9359L39.0259 43.5663L40.6832 45.2235L38.3125 45.9359ZM54.8709 31.9078L42.4131 44.3656L39.886 41.8389L52.3438 29.3811C52.5091 29.2117 52.7064 29.0767 52.9243 28.9841C53.1422 28.8915 53.3762 28.8431 53.613 28.8416C53.8497 28.8401 54.0844 28.8857 54.3034 28.9756C54.5224 29.0655 54.7213 29.198 54.8887 29.3654C55.0561 29.5328 55.1886 29.7318 55.2785 29.9508C55.3685 30.1698 55.414 30.4045 55.4126 30.6412C55.4111 30.8779 55.3627 31.112 55.27 31.3299C55.1774 31.5477 55.0425 31.7451 54.873 31.9104L54.8709 31.9078Z" fill="#E3B080"/>
<path d="M51.6785 31.2796L44.8774 38.0811C44.7106 38.2539 44.6182 38.4852 44.6202 38.7254C44.6222 38.9656 44.7185 39.1954 44.8883 39.3652C45.0581 39.5351 45.2879 39.6315 45.5281 39.6336C45.7682 39.6358 45.9996 39.5435 46.1724 39.3767L52.9719 32.5751C53.1328 32.4014 53.2202 32.1722 53.2158 31.9354C53.2114 31.6987 53.1155 31.4729 52.9482 31.3053C52.7809 31.1378 52.5553 31.0415 52.3185 31.0367C52.0818 31.0319 51.8524 31.1189 51.6785 31.2796Z" fill="#E3B080"/>
<path d="M27.56 36.4722H10.6907C10.4477 36.4722 10.2147 36.5687 10.043 36.7405C9.87117 36.9123 9.77466 37.1452 9.77466 37.3882C9.77466 37.6311 9.87117 37.8641 10.043 38.0359C10.2147 38.2077 10.4477 38.3042 10.6907 38.3042H27.56C27.803 38.3042 28.036 38.2077 28.2077 38.0359C28.3795 37.8641 28.476 37.6311 28.476 37.3882C28.476 37.1452 28.3795 36.9123 28.2077 36.7405C28.036 36.5687 27.803 36.4722 27.56 36.4722Z" fill="#E3B080"/>
<path d="M10.6891 43.2632H27.5585C27.8014 43.2632 28.0344 43.1667 28.2062 42.9949C28.378 42.8231 28.4745 42.5901 28.4745 42.3472C28.4745 42.1042 28.378 41.8712 28.2062 41.6994C28.0344 41.5277 27.8014 41.4312 27.5585 41.4312H10.6891C10.4462 41.4312 10.2132 41.5277 10.0414 41.6994C9.86964 41.8712 9.77313 42.1042 9.77313 42.3472C9.77313 42.5901 9.86964 42.8231 10.0414 42.9949C10.2132 43.1667 10.4462 43.2632 10.6891 43.2632Z" fill="#E3B080"/>
<path d="M27.5601 46.3909H10.6891C10.4462 46.3909 10.2132 46.4874 10.0414 46.6592C9.86964 46.831 9.77313 47.0639 9.77313 47.3069C9.77313 47.5498 9.86964 47.7828 10.0414 47.9546C10.2132 48.1264 10.4462 48.2229 10.6891 48.2229H27.5601C27.803 48.2229 28.036 48.1264 28.2078 47.9546C28.3796 47.7828 28.4761 47.5498 28.4761 47.3069C28.4761 47.0639 28.3796 46.831 28.2078 46.6592C28.036 46.4874 27.803 46.3909 27.5601 46.3909Z" fill="#E3B080"/>
<path d="M27.56 26.5541H10.6907C10.4477 26.5541 10.2147 26.6506 10.043 26.8224C9.87117 26.9942 9.77466 27.2272 9.77466 27.4701C9.77466 27.713 9.87117 27.946 10.043 28.1178C10.2147 28.2896 10.4477 28.3861 10.6907 28.3861H27.56C27.803 28.3861 28.036 28.2896 28.2077 28.1178C28.3795 27.946 28.476 27.713 28.476 27.4701C28.476 27.2272 28.3795 26.9942 28.2077 26.8224C28.036 26.6506 27.803 26.5541 27.56 26.5541Z" fill="#E3B080"/>
<path d="M10.6891 33.3446H27.5585C27.8014 33.3446 28.0344 33.2481 28.2062 33.0763C28.378 32.9045 28.4745 32.6715 28.4745 32.4286C28.4745 32.1856 28.378 31.9527 28.2062 31.7809C28.0344 31.6091 27.8014 31.5126 27.5585 31.5126H10.6891C10.4462 31.5126 10.2132 31.6091 10.0414 31.7809C9.86964 31.9527 9.77313 32.1856 9.77313 32.4286C9.77313 32.6715 9.86964 32.9045 10.0414 33.0763C10.2132 33.2481 10.4462 33.3446 10.6891 33.3446Z" fill="#E3B080"/>
</svg>
