<svg width="24" height="24" viewBox="0 0 24 24" fill="none" xmlns="http://www.w3.org/2000/svg">
<path d="M16.9688 0H7.03125C3.15422 0 0 3.15422 0 7.03125V16.9688C0 20.8458 3.15422 24 7.03125 24H16.9688C20.8458 24 24 20.8458 24 16.9688V7.03125C24 3.15422 20.8458 0 16.9688 0ZM23.0625 16.9688C23.0625 20.3288 20.3288 23.0625 16.9688 23.0625H7.03125C3.67116 23.0625 0.9375 20.3288 0.9375 16.9688V7.03125C0.9375 3.67116 3.67116 0.9375 7.03125 0.9375H16.9688C20.3288 0.9375 23.0625 3.67116 23.0625 7.03125V16.9688Z" fill="#1B304F"/>
<path d="M11.5 7C8.4673 7 6 9.4673 6 12.5C6 15.5327 8.4673 18 11.5 18C14.5327 18 17 15.5327 17 12.5C17 9.4673 14.5327 7 11.5 7ZM11.5 16.7778C9.14123 16.7778 7.22222 14.8588 7.22222 12.5C7.22222 10.1412 9.14123 8.22222 11.5 8.22222C13.8588 8.22222 15.7778 10.1412 15.7778 12.5C15.7778 14.8588 13.8588 16.7778 11.5 16.7778Z" fill="#1B304F"/>
<path d="M18.1523 4.06641C17.1702 4.06641 16.3711 4.86548 16.3711 5.84766C16.3711 6.82983 17.1702 7.62891 18.1523 7.62891C19.1345 7.62891 19.9336 6.82983 19.9336 5.84766C19.9336 4.86548 19.1345 4.06641 18.1523 4.06641ZM18.1523 6.69141C17.6871 6.69141 17.3086 6.31289 17.3086 5.84766C17.3086 5.38242 17.6871 5.00391 18.1523 5.00391C18.6176 5.00391 18.9961 5.38242 18.9961 5.84766C18.9961 6.31289 18.6176 6.69141 18.1523 6.69141Z" fill="#1B304F"/>
</svg>
