<svg width="20" height="20" viewBox="0 0 20 20" fill="none" xmlns="http://www.w3.org/2000/svg">
<path d="M14.1406 0H5.85938C2.62852 0 0 2.62852 0 5.85938V14.1406C0 17.3715 2.62852 20 5.85938 20H14.1406C17.3715 20 20 17.3715 20 14.1406V5.85938C20 2.62852 17.3715 0 14.1406 0ZM19.2188 14.1406C19.2188 16.9407 16.9407 19.2188 14.1406 19.2188H5.85938C3.0593 19.2188 0.78125 16.9407 0.78125 14.1406V5.85938C0.78125 3.0593 3.0593 0.78125 5.85938 0.78125H14.1406C16.9407 0.78125 19.2188 3.0593 19.2188 5.85938V14.1406Z" fill="white"/>
<path d="M9.58333 5.83325C7.05608 5.83325 5 7.88934 5 10.4166C5 12.9438 7.05608 14.9999 9.58333 14.9999C12.1106 14.9999 14.1667 12.9438 14.1667 10.4166C14.1667 7.88934 12.1106 5.83325 9.58333 5.83325ZM9.58333 13.9814C7.61769 13.9814 6.01852 12.3822 6.01852 10.4166C6.01852 8.45095 7.61769 6.85177 9.58333 6.85177C11.549 6.85177 13.1481 8.45095 13.1481 10.4166C13.1481 12.3822 11.549 13.9814 9.58333 13.9814Z" fill="white"/>
<path d="M15.127 3.38867C14.3085 3.38867 13.6426 4.05457 13.6426 4.87305C13.6426 5.69152 14.3085 6.35742 15.127 6.35742C15.9454 6.35742 16.6113 5.69152 16.6113 4.87305C16.6113 4.05457 15.9454 3.38867 15.127 3.38867ZM15.127 5.57617C14.7393 5.57617 14.4238 5.26074 14.4238 4.87305C14.4238 4.48535 14.7393 4.16992 15.127 4.16992C15.5146 4.16992 15.8301 4.48535 15.8301 4.87305C15.8301 5.26074 15.5146 5.57617 15.127 5.57617Z" fill="white"/>
</svg>
