<svg width="73" height="51" viewBox="0 0 73 51" fill="none" xmlns="http://www.w3.org/2000/svg">
<path d="M14.4648 18.0137C16.4464 18.0137 18.0586 19.6258 18.0586 21.6074C18.0586 21.8555 18.2598 22.0566 18.5078 22.0566C18.7559 22.0566 18.957 21.8555 18.957 21.6074C18.957 19.6258 20.5692 18.0137 22.5508 18.0137C22.7988 18.0137 23 17.8125 23 17.5645C23 17.3164 22.7988 17.1152 22.5508 17.1152C20.5692 17.1152 18.957 15.5031 18.957 13.5215C18.957 13.2734 18.7559 13.0723 18.5078 13.0723C18.2598 13.0723 18.0586 13.2734 18.0586 13.5215C18.0586 15.5031 16.4464 17.1152 14.4648 17.1152C14.2168 17.1152 14.0156 17.3164 14.0156 17.5645C14.0156 17.8125 14.2168 18.0137 14.4648 18.0137ZM18.5078 15.4788C18.9488 16.3859 19.6863 17.1235 20.5935 17.5645C19.6863 18.0054 18.9488 18.7429 18.5078 19.6501C18.0669 18.743 17.3293 18.0055 16.4221 17.5645C17.3293 17.1235 18.0669 16.386 18.5078 15.4788Z" fill="white"/>
<path d="M0.449219 4.53711C1.68771 4.53711 2.69531 5.54471 2.69531 6.7832C2.69531 7.03126 2.89643 7.23242 3.14453 7.23242C3.39263 7.23242 3.59375 7.03126 3.59375 6.7832C3.59375 5.54471 4.60135 4.53711 5.83984 4.53711C6.08795 4.53711 6.28906 4.33595 6.28906 4.08789C6.28906 3.83983 6.08795 3.63867 5.83984 3.63867C4.60135 3.63867 3.59375 2.63107 3.59375 1.39258C3.59375 1.14452 3.39263 0.943359 3.14453 0.943359C2.89643 0.943359 2.69531 1.14452 2.69531 1.39258C2.69531 2.63107 1.68771 3.63867 0.449219 3.63867C0.201115 3.63867 0 3.83983 0 4.08789C0 4.33595 0.201115 4.53711 0.449219 4.53711ZM3.14453 3.01084C3.41015 3.45153 3.78089 3.82231 4.22153 4.08789C3.78085 4.35347 3.41011 4.72425 3.14453 5.16494C2.87891 4.72425 2.50817 4.35347 2.06753 4.08789C2.50817 3.82231 2.87891 3.45153 3.14453 3.01084Z" fill="white"/>
<path d="M12.5332 13.6562C12.7813 13.6562 12.9824 13.4551 12.9824 13.207C12.9824 12.9589 12.7813 12.7578 12.5332 12.7578C12.2851 12.7578 12.084 12.9589 12.084 13.207C12.084 13.4551 12.2851 13.6562 12.5332 13.6562Z" fill="white"/>
<path d="M13.7316 12.1825C13.8582 12.3959 14.1339 12.4662 14.3472 12.3396C15.5205 11.6434 16.866 11.2754 18.2383 11.2754C18.4863 11.2754 18.6875 11.0742 18.6875 10.8262C18.6875 10.5781 18.4863 10.377 18.2383 10.377C14.0274 10.377 10.6016 6.95112 10.6016 2.74023C10.6016 2.49218 10.4004 2.29102 10.1523 2.29102C9.90424 2.29102 9.70312 2.49218 9.70312 2.74023C9.70312 6.95112 6.27729 10.377 2.06641 10.377C1.8183 10.377 1.61719 10.5781 1.61719 10.8262C1.61719 11.0742 1.8183 11.2754 2.06641 11.2754C6.27729 11.2754 9.70312 14.7012 9.70312 18.9121C9.70312 19.1602 9.90424 19.3613 10.1523 19.3613C10.4004 19.3613 10.6016 19.1602 10.6016 18.9121C10.6016 17.5398 10.9696 16.1943 11.6658 15.021C11.7924 14.8076 11.722 14.532 11.5087 14.4055C11.2952 14.2787 11.0197 14.3492 10.8932 14.5625C10.5893 15.0745 10.3414 15.6157 10.152 16.1766C9.30062 13.6665 7.31117 11.6774 4.80103 10.8262C7.31144 9.9749 9.30107 7.98527 10.1523 5.47485C11.0035 7.985 12.9927 9.97445 15.5027 10.8259C14.9419 11.0152 14.4007 11.2631 13.8886 11.567C13.6753 11.6936 13.605 11.9692 13.7316 12.1825Z" fill="white"/>
<path d="M35.848 41.64C35.824 41.64 35.764 41.64 35.668 41.64C35.572 41.64 35.2 41.88 34.552 42.36L26.272 20.688L24.544 39.552C24.496 39.936 24.676 40.26 25.084 40.524C25.492 40.788 26.056 40.92 26.776 40.92H28.288V42H19.648V40.92H20.8C22.192 40.92 22.936 40.392 23.032 39.336L24.832 19.464C24.88 19.008 24.712 18.636 24.328 18.348C23.968 18.036 23.392 17.88 22.6 17.88H21.448V16.8H28.216L35.92 37.104L43.696 16.8H50.176V17.808H48.736C47.584 17.808 47.008 18.252 47.008 19.14C47.008 19.212 47.008 19.296 47.008 19.392L48.664 39.336C48.712 39.888 48.844 40.296 49.06 40.56C49.3 40.8 49.72 40.92 50.32 40.92H51.76V42H42.544V40.92H43.768C44.44 40.92 44.896 40.812 45.136 40.596C45.376 40.38 45.496 40.152 45.496 39.912C45.496 39.648 45.496 39.456 45.496 39.336L43.912 20.472L35.848 41.64ZM53.4784 40.272L53.9824 35.592L55.2064 35.664C55.2064 36.984 55.9864 38.052 57.5464 38.868C59.1304 39.66 60.9184 40.056 62.9104 40.056C64.9264 40.056 66.4384 39.756 67.4464 39.156C68.4544 38.532 68.9584 37.752 68.9584 36.816C68.9584 35.232 68.1184 33.816 66.4384 32.568C65.7424 32.064 65.0104 31.62 64.2424 31.236C62.4904 30.324 61.3864 29.748 60.9304 29.508C60.4984 29.244 60.0064 28.98 59.4544 28.716C58.9024 28.452 58.3864 28.176 57.9064 27.888C57.4504 27.576 56.9584 27.204 56.4304 26.772C55.2304 25.812 54.6304 24.744 54.6304 23.568C54.6304 22.368 54.8344 21.324 55.2424 20.436C55.6744 19.548 56.2024 18.852 56.8264 18.348C57.4744 17.844 58.2304 17.424 59.0944 17.088C60.5584 16.56 62.1904 16.296 63.9904 16.296C65.8144 16.296 67.5664 16.752 69.2464 17.664L68.8144 21.84H67.5904C67.5904 19.584 65.6944 18.456 61.9024 18.456C60.1504 18.456 58.8304 18.732 57.9424 19.284C57.0784 19.836 56.6464 20.592 56.6464 21.552C56.6464 23.088 59.1424 24.936 64.1344 27.096C67.4224 28.512 69.5224 30.084 70.4344 31.812C70.8904 32.676 71.1184 33.624 71.1184 34.656C71.1184 37.152 70.1104 39.084 68.0944 40.452C66.1024 41.82 63.6904 42.504 60.8584 42.504C58.0264 42.504 55.5664 41.76 53.4784 40.272Z" fill="white"/>
</svg>
