<svg width="24" height="26" viewBox="0 0 24 26" fill="none" xmlns="http://www.w3.org/2000/svg">
<path d="M22 4.33325H2C0.896 4.33466 0.0013 5.30392 0 6.49992V19.4999C0.0013 20.6959 0.896 21.6652 2 21.6666H22C23.104 21.6652 23.9987 20.6959 24 19.4999V6.49992C23.9987 5.30392 23.104 4.33466 22 4.33325ZM23.2 19.4999C23.2 20.2179 22.6628 20.7999 22 20.7999H2C1.33725 20.7999 0.8 20.2179 0.8 19.4999V6.49992C0.8 5.78194 1.33725 5.19992 2 5.19992H22C22.6628 5.19992 23.2 5.78194 23.2 6.49992V19.4999Z" fill="white"/>
<path d="M22.3428 6.2768C22.229 6.07172 21.9833 6.00537 21.794 6.1286L13.0288 11.8256C12.3959 12.2386 11.6041 12.2386 10.9712 11.8256L2.20599 6.1286C2.01459 6.00905 1.76999 6.08023 1.65964 6.28752C1.55209 6.48956 1.61144 6.74761 1.79399 6.87133L10.56 12.5688C11.4461 13.1459 12.5539 13.1459 13.44 12.5688L22.206 6.87133C22.3953 6.74805 22.4565 6.48192 22.3428 6.2768Z" fill="white"/>
</svg>
