<svg width="22" height="22" viewBox="0 0 22 22" fill="none" xmlns="http://www.w3.org/2000/svg">
<path d="M20.1667 3.66667H1.83333C0.821333 3.66786 0.00119167 4.488 0 5.5V16.5C0.00119167 17.512 0.821333 18.3321 1.83333 18.3333H20.1667C21.1787 18.3321 21.9988 17.512 22 16.5V5.5C21.9988 4.488 21.1787 3.66786 20.1667 3.66667ZM21.2667 16.5C21.2667 17.1075 20.7742 17.6 20.1667 17.6H1.83333C1.22581 17.6 0.733333 17.1075 0.733333 16.5V5.5C0.733333 4.89248 1.22581 4.4 1.83333 4.4H20.1667C20.7742 4.4 21.2667 4.89248 21.2667 5.5V16.5Z" fill="#1B304F"/>
<path d="M20.4809 5.31118C20.3766 5.13765 20.1514 5.08151 19.9778 5.18578L11.943 10.0063C11.3629 10.3558 10.6371 10.3558 10.0569 10.0063L2.02213 5.18578C1.84668 5.08462 1.62246 5.14485 1.52131 5.32025C1.42272 5.49121 1.47713 5.70956 1.64446 5.81424L9.67997 10.6352C10.4922 11.1235 11.5077 11.1235 12.32 10.6352L20.3555 5.81424C20.529 5.70993 20.5851 5.48475 20.4809 5.31118Z" fill="#1B304F"/>
</svg>
