<svg width="20" height="20" viewBox="0 0 20 20" fill="none" xmlns="http://www.w3.org/2000/svg">
<path d="M19.4752 15.4288L15.4271 12.7292C14.9134 12.3894 14.2248 12.5012 13.845 12.9862L12.6658 14.5023C12.5143 14.7021 12.2388 14.7601 12.0196 14.6383L11.7953 14.5146C11.0517 14.1094 10.1266 13.6048 8.26251 11.7401C6.39845 9.87533 5.89286 8.94946 5.48757 8.20726L5.36458 7.98296C5.24112 7.76377 5.29799 7.48713 5.49788 7.33438L7.01297 6.15557C7.49774 5.77575 7.60972 5.08733 7.27028 4.57346L4.57068 0.525394C4.2228 0.00211208 3.52485 -0.154974 2.9863 0.168767L1.29355 1.18561C0.761671 1.4983 0.371456 2.00471 0.204723 2.59872C-0.404835 4.81972 0.0537292 8.65282 5.70023 14.3C10.1919 18.7913 13.5358 19.9991 15.8341 19.9991C16.363 20.0014 16.8899 19.9326 17.4005 19.7945C17.9947 19.628 18.5011 19.2377 18.8136 18.7057L19.8315 17.014C20.1557 16.4753 19.9987 15.7769 19.4752 15.4288ZM19.2572 16.672L18.2417 18.3647C18.0173 18.7487 17.653 19.0311 17.2252 19.1526C15.1748 19.7156 11.5927 19.2493 6.17181 13.8284C0.750931 8.40754 0.284711 4.82573 0.847635 2.77506C0.969336 2.34669 1.25203 1.98194 1.6365 1.7572L3.32926 0.74169C3.56293 0.601086 3.86586 0.66924 4.01681 0.896315L5.48327 3.09798L6.71411 4.94403C6.86151 5.16693 6.81308 5.46568 6.6028 5.63061L5.08736 6.80942C4.62618 7.16206 4.49448 7.80013 4.77842 8.30654L4.89875 8.52518C5.3247 9.30639 5.85427 10.2782 7.78766 12.2113C9.72104 14.1443 10.6926 14.674 11.4734 15.0999L11.6924 15.2205C12.1988 15.5044 12.8369 15.3728 13.1895 14.9116L14.3683 13.3961C14.5333 13.186 14.8319 13.1376 15.0549 13.2848L19.1026 15.9844C19.3299 16.1353 19.398 16.4383 19.2572 16.672Z" fill="#1B304F"/>
</svg>
