<svg width="14" height="14" viewBox="0 0 14 14" fill="none" xmlns="http://www.w3.org/2000/svg">
<path d="M13.5045 8.17641C13.5767 7.78302 13.6146 7.38045 13.6146 6.97798C13.6146 6.08557 13.44 5.21987 13.0947 4.40479C12.7617 3.61749 12.2852 2.9105 11.6778 2.30349C11.0712 1.69638 10.3637 1.22 9.57681 0.886961C8.76205 0.542174 7.89624 0.367431 7.00394 0.367431C6.58332 0.367431 6.16205 0.406951 5.75211 0.485671C5.75126 0.485885 5.75008 0.485885 5.74901 0.486098C5.18654 0.187027 4.55401 0.0273438 3.91367 0.0273438C2.86831 0.0273438 1.88543 0.434402 1.1463 1.17386C0.407272 1.91299 0 2.89587 0 3.94123C0 4.60656 0.171219 5.26067 0.4924 5.83863C0.427245 6.21311 0.392852 6.59581 0.392852 6.97798C0.392852 7.87061 0.567595 8.7362 0.912809 9.55139C1.24531 10.3389 1.72201 11.0455 2.32891 11.6526C2.93635 12.2596 3.64291 12.7367 4.43064 13.0689C5.2455 13.4143 6.11153 13.5892 7.00383 13.5892C7.3923 13.5892 7.78163 13.5537 8.16167 13.4863C8.74721 13.8175 9.41008 13.9936 10.087 13.9936C11.1322 13.9936 12.1145 13.5873 12.8538 12.8476C13.5931 12.1089 14 11.1258 14 10.0804C14 9.41285 13.8279 8.75661 13.5045 8.17641Z" fill="white"/>
<path d="M7.03019 11.0267C4.68162 11.0267 3.63092 9.8721 3.63092 9.00671C3.63092 8.56291 3.95862 8.25177 4.41022 8.25177C5.41531 8.25177 5.15501 9.6949 7.03019 9.6949C7.99021 9.6949 8.52031 9.17366 8.52031 8.64024C8.52031 8.31938 8.36202 7.96381 7.72991 7.80797L5.641 7.28651C3.95862 6.86461 3.65335 5.95511 3.65335 5.10019C3.65335 3.3252 5.32463 2.65869 6.89411 2.65869C8.33991 2.65869 10.0442 3.45775 10.0442 4.52266C10.0442 4.97896 9.6491 5.24428 9.1976 5.24428C8.33991 5.24428 8.49767 4.05707 6.76989 4.05707C5.91252 4.05707 5.43763 4.44533 5.43763 5.00085C5.43763 5.55542 6.11482 5.73251 6.70271 5.86646L8.24891 6.20964C9.94261 6.58701 10.372 7.57587 10.372 8.50726C10.3721 9.94965 9.2649 11.0267 7.03019 11.0267Z" fill="#1B304F"/>
</svg>
