<svg width="20" height="20" viewBox="0 0 20 20" fill="none" xmlns="http://www.w3.org/2000/svg">
<path d="M19.4 11.7333C19.5 11.1666 19.5667 10.6 19.5667 10.0333C19.5667 4.8 15.3 0.53332 10.0667 0.53332C9.5 0.53332 8.93336 0.6 8.36668 0.7C7.53332 0.23332 6.6 0 5.63332 0C2.53332 0 0 2.53332 0 5.63332C0 6.56664 0.23332 7.53332 0.7 8.36664C0.6 8.93332 0.53332 9.49996 0.53332 10.0666C0.53332 15.3 4.8 19.5666 10.0333 19.5666C10.6 19.5666 11.1666 19.5 11.7333 19.4C12.4666 19.8 13.3666 20 14.4666 20C17.5667 20 20 17.5667 20 14.4667C20 13.3667 19.8 12.4667 19.4 11.7333ZM14.4667 19.3333C13.4334 19.3333 12.6334 19.1333 11.9667 18.7666L11.8667 18.7L11.7334 18.7333C11.1667 18.8333 10.6 18.9 10.0334 18.9C5.16668 18.9 1.20004 14.9333 1.20004 10.0666C1.20004 9.49996 1.26672 8.93332 1.36672 8.36664L1.40004 8.23332L1.33336 8.13332C0.900039 7.36664 0.66668 6.5 0.66668 5.63332C0.66668 2.9 2.9 0.666641 5.63336 0.666641C6.50004 0.666641 7.36668 0.899961 8.13336 1.33332L8.23336 1.4L8.36668 1.36668C8.93336 1.26668 9.5 1.2 10.0667 1.2C14.9334 1.2 18.9 5.16668 18.9 10.0333C18.9 10.6 18.8333 11.1666 18.7333 11.7333L18.7 11.8666L18.7667 11.9666C19.1334 12.6333 19.3334 13.4333 19.3334 14.4666C19.3333 17.2 17.2 19.3333 14.4667 19.3333Z" fill="white"/>
<path d="M10.8667 8.39991C8.36667 7.89991 7.99999 7.26659 7.96667 7.09991C7.89999 6.86659 8.06667 6.66659 8.23335 6.53323C8.66667 6.16655 9.70003 5.86655 10.6 6.03323C10.9334 6.09991 11.4 6.26655 11.6334 6.66655C12.2 7.76655 12.8 8.63323 14.0334 8.33323C14.4334 8.23323 14.7334 7.96655 14.9334 7.56655C15.1667 7.03323 15.1667 6.29987 14.8667 5.73323C14.5334 5.09991 13.1 3.46655 10.3 3.46655C7.63331 3.46655 4.56667 4.43323 4.56667 7.16655C4.56667 9.33323 6.46667 10.8666 9.76667 11.3332C11.4334 11.5666 11.9667 12.0999 12.1334 12.3999C12.2334 12.5999 12.2334 12.7999 12.1667 12.9999C11.9 13.6332 11 14.2332 9.59999 14.0999C7.99999 13.9332 7.46667 12.4999 7.36667 12.1999C7.09999 11.3666 6.19999 11.2332 5.73335 11.2666C5.50003 11.2999 4.96667 11.4666 4.63335 11.9666C4.43335 12.2666 4.23335 12.8333 4.53335 13.6999C4.90003 14.8332 6.13335 16.6999 10.2334 16.6999C13.6667 16.6999 15.7334 14.5332 15.7667 12.5332C15.7667 10.3332 14.2667 9.06659 10.8667 8.39991ZM10.2 16.0332C7.46667 16.0332 5.66667 15.1332 5.13331 13.4999C4.96663 12.9999 4.96663 12.5999 5.16663 12.3332C5.36663 12.0666 5.66663 11.9332 5.79995 11.9332C5.79995 11.9332 5.83328 11.9332 5.89995 11.9332C6.09995 11.9332 6.59995 11.9666 6.66663 12.3666C6.79995 12.7332 7.46663 14.5332 9.46663 14.7332C11.2333 14.8999 12.3666 14.0666 12.7333 13.1999C12.9 12.7999 12.8666 12.3666 12.6666 11.9999C12.4 11.4999 11.6666 10.8666 9.83331 10.5999C8.09999 10.3332 5.19999 9.56659 5.19999 7.09991C5.19999 4.86659 7.93331 4.06659 10.2667 4.06659C12.7334 4.06659 13.9667 5.43327 14.2334 5.96659C14.4 6.33327 14.4334 6.86659 14.2667 7.23327C14.1667 7.46659 14 7.59995 13.8 7.63327C13.2 7.76659 12.8333 7.63327 12.1333 6.29995C11.8666 5.79995 11.3333 5.46663 10.6333 5.33327C9.59999 5.16659 8.33331 5.43327 7.69999 5.99995C7.29999 6.36663 7.13331 6.79995 7.23331 7.23327C7.46663 8.03327 8.56663 8.59995 10.6666 8.99995C14.5 9.76663 15.0333 11.1666 15.0333 12.4666C15.0333 14.1999 13.2333 16.0332 10.2 16.0332Z" fill="white"/>
</svg>
