<svg width="73" height="73" viewBox="0 0 73 73" fill="none" xmlns="http://www.w3.org/2000/svg">
<g clip-path="url(#clip0)">
<path d="M71.5914 22.401L56.1813 17.193C55.622 17.0048 55.015 17.3042 54.8258 17.8638C54.6367 18.4233 54.937 19.0303 55.4965 19.2193L70.7594 24.3777L63.5749 27.8803C63.2766 27.6791 62.9418 27.5247 62.5788 27.4299L41.029 21.7979C40.344 18.2738 36.0051 16.7948 33.34 19.3027C32.4176 20.1708 31.8886 21.3949 31.8886 22.6612V22.6846C31.8962 24.1756 33.1302 25.3886 34.6398 25.3886H38.3605C39.3212 25.3886 40.2821 24.8873 40.7804 23.9435L60.877 29.1958C54.5271 32.2917 40.2721 39.2415 38.455 40.1275C37.1723 40.7527 35.7431 40.7117 34.545 40.1275L2.24044 24.3777L35.0716 13.2819C35.9925 12.9705 37.0073 12.9705 37.9283 13.2819L50.7464 17.6141C51.306 17.803 51.9127 17.5032 52.1019 16.9434C52.291 16.3839 51.9907 15.7769 51.4312 15.5878L38.6131 11.2556C37.2503 10.7952 35.7496 10.7952 34.3867 11.2556L1.40845 22.401C-0.343655 22.9936 -0.501784 25.4203 1.16348 26.232L18.0882 34.4835C17.1571 38.9101 15.7355 43.6758 14.1905 47.9057C13.558 49.6356 14.1029 51.5599 15.5462 52.6944C20.4305 56.5332 26.2015 59.4987 32.1165 61.405C34.896 62.3006 37.9954 62.3351 40.8828 61.405C46.7996 59.4979 52.5712 56.5312 57.4529 52.6944C58.9015 51.5555 59.439 49.6303 58.8086 47.9057C57.2962 43.7696 55.8553 38.9728 54.911 34.4839L62.8722 30.6026V46.6977C61.5115 46.802 60.4356 47.94 60.4356 49.3269V52.4433C60.4356 52.9062 60.6366 53.3222 60.9546 53.6119L60.5573 59.6179C60.4798 60.7913 61.4127 61.7885 62.589 61.7885H65.2945C66.4702 61.7885 67.4036 60.7917 67.326 59.6179L66.9289 53.6119C67.2469 53.3222 67.448 52.9064 67.448 52.4433V49.3268C67.448 47.9398 66.3719 46.8018 65.0112 46.6976V30.5793C65.0112 30.2507 64.9594 29.9323 64.867 29.63L71.8363 26.2322C73.4995 25.4213 73.3463 22.9944 71.5914 22.401ZM38.3605 23.2498H34.6398C34.3094 23.2498 34.029 22.986 34.0274 22.6792V22.6612C34.0274 21.9722 34.3037 21.3327 34.8058 20.8602C36.3459 19.4108 38.8696 20.4541 38.9696 22.5387C38.9934 23.0379 38.672 23.2498 38.3605 23.2498ZM55.5959 45.1567C49.818 49.6787 41.6184 52.9135 38.7941 53.4519C38.2139 53.5626 37.8333 54.1227 37.944 54.7027C38.0546 55.283 38.6163 55.6636 39.1947 55.5528C42.149 54.9894 50.2432 51.8438 56.3195 47.2966C56.4689 47.7228 56.642 48.208 56.7999 48.6399C57.1136 49.4983 56.8448 50.4516 56.1313 51.0127C50.3722 55.5388 44.3036 58.0552 40.2268 59.3688C37.7917 60.1538 35.1468 60.1344 32.7725 59.3688C28.6957 58.055 22.627 55.5388 16.868 51.0127C16.1546 50.4519 15.8854 49.4987 16.1995 48.6398C16.2058 48.6227 16.2119 48.6053 16.2182 48.5882C16.3736 48.1624 16.5459 47.6792 16.6797 47.2963C22.6125 51.7348 30.6846 54.9582 33.8035 55.5532C34.3844 55.6636 34.9438 55.2833 35.0544 54.7033C35.1651 54.1231 34.7845 53.563 34.2045 53.4524C31.5381 52.944 23.3104 49.7776 17.4034 45.1565C18.2719 42.5006 19.2782 39.0873 20.0693 35.4494L33.6076 42.0497C35.4102 42.9286 37.5193 42.963 39.3924 42.0497L52.9298 35.4497C53.7209 39.0875 54.7272 42.5007 55.5959 45.1567ZM62.6985 59.6496L63.0706 54.0261H64.8127L65.1845 59.6496H62.6985ZM65.309 49.3266V51.8872H62.5744V49.3266C62.5744 49.0553 62.8035 48.826 63.075 48.826H64.8083C65.0796 48.8261 65.309 49.0553 65.309 49.3266Z" fill="#E3B080"/>
<rect x="50.4688" y="15.2729" width="6.55379" height="2.12153" transform="rotate(18.7351 50.4688 15.2729)" fill="#E3B080"/>
</g>
<defs>
<clipPath id="clip0">
<rect width="73" height="73" fill="white"/>
</clipPath>
</defs>
</svg>
