<svg width="63" height="63" viewBox="0 0 63 63" fill="none" xmlns="http://www.w3.org/2000/svg">
<path d="M53.7739 9.22617C50.8489 6.30112 47.3763 3.98084 43.5546 2.39781C39.7328 0.814784 35.6367 6.09388e-06 31.5 0C23.1457 -1.2307e-05 15.1336 3.31872 9.22617 9.22611C3.31876 15.1335 1.23071e-05 23.1456 0 31.5C-1.2307e-05 39.8543 3.31872 47.8664 9.2261 53.7738C15.1335 59.6813 23.1456 63 31.5 63C39.8543 63 47.8664 59.6813 53.7738 53.7739C59.6812 47.8665 63 39.8544 63 31.5001C63 23.1457 59.6813 15.1336 53.7739 9.22617ZM56.3245 47.269H45.1854C46.1867 43.6793 46.8233 39.9978 47.0857 36.2803L48.3134 35.0526C49.0406 34.3269 49.6357 33.48 50.0721 32.5499H60.8795C60.7083 37.7759 59.135 42.8597 56.3245 47.269ZM32.0615 60.8927C31.8746 60.8963 31.6876 60.8995 31.5 60.8995C31.3224 60.8995 31.1456 60.8963 30.968 60.8931C27.9951 60.626 25.0979 58.1802 22.7563 53.9369C21.9576 52.4702 21.2756 50.943 20.7166 49.3694H29.0031L30.7577 51.1239C30.9546 51.3208 31.2216 51.4314 31.5001 51.4314C31.7785 51.4314 32.0456 51.3208 32.2425 51.1239L33.997 49.369H42.308C41.7501 50.9398 41.0696 52.4643 40.2729 53.9285C37.9316 58.1758 35.0348 60.6236 32.0615 60.8927ZM2.1205 32.5499H12.9274C13.3637 33.48 13.9589 34.3269 14.6861 35.0526L15.9405 36.307C16.204 40.0154 16.8401 43.6879 17.8392 47.269H6.67552C3.86499 42.8597 2.29172 37.7759 2.1205 32.5499ZM6.65085 15.769H17.8333C17.3387 17.5207 16.9375 19.2974 16.6314 21.0917C15.2581 21.858 14.1142 22.9768 13.3174 24.3326C12.5207 25.6884 12.1 27.2321 12.0988 28.8047C12.0991 29.3567 12.1506 29.9075 12.2526 30.4499H2.1201C2.29088 25.2393 3.85543 20.1697 6.65085 15.769ZM31.5123 2.11899C33.4436 2.11899 36.3618 3.05086 39.2969 7.49092C40.4388 9.21869 41.4531 11.3144 42.3025 13.669H20.7224C21.5723 11.3127 22.5872 9.21567 23.7303 7.48711C26.6646 3.05086 29.5819 2.11899 31.5123 2.11899ZM42.9957 15.769C43.4205 17.1812 43.7884 18.6671 44.0933 20.2065C42.6279 19.8594 41.098 19.8931 39.6494 20.3045C38.2007 20.7159 36.8815 21.4914 35.8173 22.557L31.4992 26.8751L27.1811 22.557C26.1202 21.4946 24.8057 20.7206 23.362 20.3082C21.9184 19.8959 20.3934 19.8588 18.9314 20.2005C19.236 18.6633 19.6035 17.1794 20.0278 15.769H42.9957ZM46.8282 33.5677L36.3318 44.0642L33.1959 41.5718L34.4702 40.5457C35.0428 40.0875 35.4993 39.5006 35.8025 38.8329C36.1058 38.1651 36.2472 37.4352 36.2154 36.7025C36.1836 35.9698 35.9794 35.255 35.6195 34.616C35.2595 33.977 34.7539 33.432 34.1438 33.0251L34.0867 32.987C33.3212 32.4748 32.421 32.2014 31.5 32.2014C30.579 32.2014 29.6788 32.4748 28.9133 32.987L28.8562 33.0251C28.2457 33.4321 27.7398 33.9775 27.3798 34.6168C27.0197 35.2562 26.8156 35.9715 26.7841 36.7045C26.7525 37.4376 26.8944 38.1678 27.1982 38.8357C27.502 39.5037 27.9591 40.0905 28.5324 40.5484L29.8342 41.5831L26.7056 44.1023L16.1716 33.5683C14.9083 32.305 14.1986 30.5917 14.1986 28.8051C14.1985 27.0185 14.9082 25.3052 16.1715 24.0419C17.4348 22.7786 19.1482 22.0688 20.9347 22.0688C22.7213 22.0688 24.4347 22.7785 25.698 24.0418L30.7582 29.1019C30.9551 29.2988 31.2221 29.4094 31.5006 29.4094C31.779 29.4094 32.0461 29.2988 32.243 29.1019L37.3031 24.0418C37.9286 23.4163 38.6711 22.9202 39.4883 22.5817C40.3056 22.2432 41.1815 22.0689 42.066 22.0689C42.9506 22.0689 43.8265 22.2432 44.6437 22.5817C45.4609 22.9202 46.2035 23.4163 46.8289 24.0418C47.4544 24.6673 47.9506 25.4098 48.2891 26.227C48.6276 27.0443 48.8018 27.9202 48.8018 28.8047C48.8018 29.6893 48.6276 30.5652 48.2891 31.3824C47.9506 32.1996 47.4544 32.9422 46.8289 33.5677H46.8282ZM28.1991 45.5951L31.5197 42.9217L34.8377 45.5588L31.5 48.8965L28.1991 45.5951ZM29.8417 38.906C29.5268 38.6541 29.2758 38.3315 29.1091 37.9644C28.9424 37.5973 28.8646 37.1961 28.8821 36.7933C28.8996 36.3904 29.0118 35.9974 29.2097 35.6462C29.4076 35.2949 29.6856 34.9953 30.0211 34.7716L30.0782 34.7335C30.4989 34.452 30.9938 34.3017 31.5 34.3017C32.0062 34.3017 32.5011 34.452 32.9218 34.7335L32.9789 34.7716C33.3146 34.9954 33.5927 35.2953 33.7906 35.6469C33.9886 35.9984 34.1007 36.3917 34.1179 36.7948C34.1351 37.1979 34.057 37.5993 33.8898 37.9665C33.7226 38.3337 33.4711 38.6562 33.1557 38.9078L31.5108 40.2324L29.8417 38.906ZM18.2749 38.6409L26.9031 47.269H20.0248C19.1938 44.4488 18.6083 41.562 18.2749 38.6409ZM36.097 47.269L44.7531 38.6129C44.42 41.5435 43.8334 44.4397 42.9999 47.269H36.097ZM50.7475 30.4499C50.8495 29.9075 50.901 29.3567 50.9014 28.8047C50.9001 27.2375 50.4822 25.6988 49.6906 24.3463C48.8989 22.9937 47.7619 21.8759 46.3961 21.1074C46.0896 19.3078 45.6875 17.5258 45.1915 15.769H56.3493C59.1445 20.1697 60.7089 25.2393 60.8795 30.4499H50.7475ZM54.8793 13.669H44.5381C43.5896 10.8762 42.4162 8.40153 41.0487 6.3329C40.2219 5.05503 39.2404 3.88416 38.1265 2.8469C43.4945 4.08035 48.4043 6.80661 52.2892 10.711C53.2166 11.639 54.0818 12.6272 54.8793 13.669ZM10.7111 10.711C14.6038 6.7986 19.5255 4.06928 24.9057 2.83929C23.7899 3.87733 22.8068 5.04946 21.9789 6.32896C20.6103 8.39825 19.4362 10.8744 18.4876 13.669H8.12072C8.91824 12.6271 9.78356 11.639 10.7111 10.711ZM8.14985 49.369H18.4935C19.1364 51.2971 19.9476 53.165 20.9178 54.951C22.1003 57.0941 23.4342 58.8394 24.8708 60.1525C19.504 58.9186 14.5953 56.1927 10.7111 52.289C9.79485 51.3723 8.93931 50.3969 8.14985 49.369ZM52.2892 52.289C48.4132 56.1843 43.5168 58.9071 38.1628 60.1446C39.598 58.8306 40.9307 57.085 42.1119 54.9424C43.0799 53.1589 43.8895 51.294 44.5313 49.369H54.8504C54.061 50.3969 53.2054 51.3723 52.2892 52.289Z" fill="#E3B080"/>
</svg>
