<svg width="67" height="67" viewBox="0 0 67 67" fill="none" xmlns="http://www.w3.org/2000/svg">
<path d="M61.7656 14.6562H50.5117C49.3934 11.0171 47.1376 7.83257 44.0757 5.57027C41.0137 3.30796 37.307 2.08716 33.5 2.08716C29.693 2.08716 25.9863 3.30796 22.9243 5.57027C19.8624 7.83257 17.6066 11.0171 16.4883 14.6562H5.23438C4.40219 14.6587 3.60481 14.9904 3.01636 15.5788C2.42792 16.1673 2.09624 16.9646 2.09375 17.7968V51.2968C2.09624 52.129 2.42792 52.9264 3.01636 53.5148C3.60481 54.1033 4.40219 54.435 5.23438 54.4374H25.9834L25.282 58.6249H24.0781C23.9158 58.6261 23.7559 58.6644 23.6107 58.737C23.4655 58.8096 23.3389 58.9145 23.2406 59.0437L20.1 63.2312C19.9834 63.3867 19.9123 63.5717 19.8949 63.7653C19.8774 63.9589 19.9142 64.1536 20.0011 64.3275C20.0881 64.5014 20.2217 64.6476 20.3871 64.7498C20.5525 64.8521 20.7431 64.9062 20.9375 64.9062H46.0625C46.2569 64.9062 46.4475 64.8521 46.6129 64.7498C46.7783 64.6476 46.9119 64.5014 46.9989 64.3275C47.0858 64.1536 47.1226 63.9589 47.1051 63.7653C47.0877 63.5717 47.0167 63.3867 46.9 63.2312L43.7594 59.0437C43.6611 58.9145 43.5345 58.8096 43.3893 58.737C43.2441 58.6644 43.0842 58.6261 42.9219 58.6249H41.718L41.0166 54.4374H61.7656C62.5978 54.435 63.3952 54.1033 63.9836 53.5148C64.5721 52.9264 64.9038 52.129 64.9062 51.2968V17.7968C64.9038 16.9646 64.5721 16.1673 63.9836 15.5788C63.3952 14.9904 62.5978 14.6587 61.7656 14.6562ZM17.8492 18.8437C17.9828 16.8021 18.5164 14.8066 19.4195 12.9707L22.0995 14.5201L23.1464 12.6985L20.4559 11.1492C21.5993 9.45095 23.0604 7.9899 24.7586 6.84652L26.308 9.53699L28.1295 8.49011L26.5802 5.81011C28.416 4.90695 30.4115 4.3734 32.4531 4.2398V7.32808H34.5469V4.2398C36.5885 4.3734 38.584 4.90695 40.4198 5.81011L38.8705 8.49011L40.692 9.53699L42.2414 6.84652C43.9396 7.9899 45.4007 9.45095 46.5441 11.1492L43.8536 12.6985L44.9005 14.5201L47.5805 12.9707C48.4836 14.8066 49.0172 16.8021 49.1508 18.8437H46.0625V20.9375H49.1508C49.0172 22.9791 48.4836 24.9746 47.5805 26.8104L44.9005 25.261L43.8536 27.0826L46.5441 28.632C45.4007 30.3302 43.9396 31.7913 42.2414 32.9346L40.692 30.2442L38.8705 31.291L40.4198 33.971C38.584 34.8742 36.5885 35.4078 34.5469 35.5414V32.4531H32.4531V35.5414C30.4115 35.4078 28.416 34.8742 26.5802 33.971L28.1295 31.291L26.308 30.2442L24.7586 32.9346C23.0604 31.7913 21.5993 30.3302 20.4559 28.632L23.1464 27.0826L22.0995 25.261L19.4195 26.8104C18.5164 24.9746 17.9828 22.9791 17.8492 20.9375H20.9375V18.8437H17.8492ZM42.3984 60.7187L43.9688 62.8124H23.0312L24.6016 60.7187H42.3984ZM27.4072 58.6249L28.1086 54.4374H38.8914L39.5928 58.6249H27.4072ZM62.8125 51.2968C62.8125 51.5745 62.7022 51.8407 62.5059 52.0371C62.3096 52.2334 62.0433 52.3437 61.7656 52.3437H5.23438C4.95673 52.3437 4.69045 52.2334 4.49412 52.0371C4.2978 51.8407 4.1875 51.5745 4.1875 51.2968V48.1562H62.8125V51.2968ZM62.8125 46.0625H4.1875V17.7968C4.1875 17.5192 4.2978 17.2529 4.49412 17.0566C4.69045 16.8602 4.95673 16.75 5.23438 16.75H15.9963C15.8081 17.7864 15.71 18.8372 15.7031 19.8906C15.7031 24.6106 17.5781 29.1373 20.9157 32.4749C24.2533 35.8124 28.78 37.6875 33.5 37.6875C38.22 37.6875 42.7467 35.8124 46.0843 32.4749C49.4219 29.1373 51.2969 24.6106 51.2969 19.8906C51.29 18.8372 51.1919 17.7864 51.0037 16.75H61.7656C62.0433 16.75 62.3096 16.8602 62.5059 17.0566C62.7022 17.2529 62.8125 17.5192 62.8125 17.7968V46.0625Z" fill="#E3B080"/>
<path d="M32.9766 20.7962C33.1357 20.8881 33.3162 20.9364 33.5 20.9364C33.6838 20.9364 33.8643 20.8881 34.0234 20.7962L41.3516 16.6087L40.3047 14.7944L34.5469 18.0869V9.42188H32.4531V19.8906C32.4533 20.0742 32.5018 20.2545 32.5936 20.4135C32.6855 20.5724 32.8176 20.7044 32.9766 20.7962Z" fill="#E3B080"/>
<path d="M6.28125 41.8749H23.0312V43.9686H6.28125V41.8749Z" fill="#E3B080"/>
<path d="M48.1562 33.5H50.25V35.5938H48.1562V33.5Z" fill="#E3B080"/>
<path d="M43.9688 37.6874H60.7188V39.7811H43.9688V37.6874Z" fill="#E3B080"/>
<path d="M43.9688 41.8749H60.7188V43.9686H43.9688V41.8749Z" fill="#E3B080"/>
<path d="M52.3438 33.5H60.7188V35.5938H52.3438V33.5Z" fill="#E3B080"/>
<path d="M16.75 33.5H18.8438V35.5938H16.75V33.5Z" fill="#E3B080"/>
<path d="M6.28125 37.6874H23.0312V39.7811H6.28125V37.6874Z" fill="#E3B080"/>
<path d="M6.28125 33.5H14.6562V35.5938H6.28125V33.5Z" fill="#E3B080"/>
</svg>
