<svg width="67" height="67" viewBox="0 0 67 67" fill="none" xmlns="http://www.w3.org/2000/svg">
<path d="M27.9315 4.47974C14.9853 4.47974 4.49036 14.9747 4.49036 27.9208C4.49036 40.867 14.9853 51.362 27.9315 51.362C40.8777 51.362 51.3726 40.867 51.3726 27.9208C51.3585 14.9805 40.8718 4.49383 27.9315 4.47974ZM27.9315 6.71222C34.8265 6.71766 41.2877 10.0781 45.2511 15.7203L42.4605 18.5109C41.7814 18.1 41.0039 17.8801 40.2101 17.8747C37.7442 17.8747 35.7452 19.8737 35.7452 22.3396C35.7491 23.1343 35.9677 23.913 36.3781 24.5933L29.0689 31.9025C27.6849 31.0586 25.9455 31.0586 24.5615 31.9025L19.4849 26.8258C19.8952 26.1455 20.1139 25.3667 20.1178 24.5721C20.1208 22.1111 18.1283 20.1136 15.6673 20.1105C13.632 20.108 11.8537 21.4847 11.3463 23.4559H7.20506C9.31853 13.6961 17.9456 6.72687 27.9315 6.71222ZM42.4426 22.3396C42.4426 23.5727 41.4432 24.5721 40.2101 24.5721C38.9771 24.5721 37.9777 23.5727 37.9777 22.3396C37.9777 21.1066 38.9771 20.1071 40.2101 20.1071C41.4432 20.1071 42.4426 21.1066 42.4426 22.3396ZM29.0477 35.7346C29.0477 36.9676 28.0483 37.967 26.8152 37.967C25.5822 37.967 24.5827 36.9676 24.5827 35.7346C24.5827 34.5015 25.5822 33.5021 26.8152 33.5021C28.0483 33.5021 29.0477 34.5015 29.0477 35.7346ZM17.8853 24.5721C17.8853 25.8051 16.8858 26.8046 15.6528 26.8046C14.4198 26.8046 13.4203 25.8051 13.4203 24.5721C13.4203 23.3391 14.4198 22.3396 15.6528 22.3396C16.8858 22.3396 17.8853 23.3391 17.8853 24.5721ZM38.2364 46.4653C35.0841 48.2156 31.5372 49.1325 27.9315 49.1293C16.2263 49.1373 6.7308 39.6549 6.72284 27.9497C6.72229 27.1943 6.76219 26.4393 6.84228 25.6882H11.3463C11.8538 27.6535 13.623 29.0293 15.6528 29.037C16.4474 29.033 17.2261 28.8144 17.9065 28.404L22.9832 33.4807C22.5728 34.1611 22.3542 34.9398 22.3503 35.7344C22.3503 38.2003 24.3493 40.1994 26.8152 40.1994C29.2811 40.1994 31.2802 38.2003 31.2802 35.7344C31.2763 34.9398 31.0576 34.1611 30.6473 33.4807L37.9565 26.1716C38.6368 26.5819 39.4155 26.8006 40.2101 26.8045C42.6761 26.8045 44.6751 24.8054 44.6751 22.3395C44.6712 21.5449 44.4526 20.7661 44.0422 20.0858L46.4756 17.6535C52.1566 27.885 48.4677 40.7844 38.2364 46.4653Z" fill="#E3B080"/>
<path d="M55.8375 11.1773C57.8673 11.1696 59.6365 9.79395 60.144 7.82852H67V5.59603H60.144C59.6365 3.63061 57.8673 2.25498 55.8375 2.2473C53.3716 2.2473 51.3725 4.24635 51.3725 6.71228C51.3765 7.5069 51.5951 8.28562 52.0055 8.96597L50.0442 10.9272C40.6601 -1.29858 23.1418 -3.60223 10.916 5.78189C-1.30981 15.166 -3.61346 32.6845 5.77066 44.9103C14.6286 56.4504 30.8659 59.2498 43.0766 51.3419L46.4454 54.7107L48.0238 56.2891L57.0096 65.2749C59.2949 67.5602 63 67.5602 65.2854 65.2749C67.5708 62.9895 67.5708 59.2844 65.2854 56.999L56.2996 48.0133L54.7213 46.4349L51.3525 43.0661C57.3326 33.8549 57.3326 21.9871 51.3525 12.7757L53.5849 10.5432C54.2649 10.9537 55.0433 11.1728 55.8375 11.1773ZM55.8375 4.47979C57.0706 4.47979 58.07 5.47925 58.07 6.71228C58.07 7.94531 57.0706 8.94476 55.8375 8.94476C54.6045 8.94476 53.605 7.94531 53.605 6.71228C53.605 5.47925 54.6046 4.47979 55.8375 4.47979ZM63.707 58.5774C65.1367 59.975 65.1628 62.2669 63.7652 63.6965C62.3677 65.1261 60.0758 65.1522 58.6461 63.7547C58.6265 63.7356 58.6072 63.7162 58.5879 63.6965L49.6022 54.7107L54.7213 49.5917L63.707 58.5774ZM53.1429 48.0133L48.0238 53.1324L44.9341 50.0426C45.0914 49.9221 45.2388 49.7892 45.3939 49.6653C45.5491 49.5414 45.7288 49.393 45.8951 49.2534C46.1396 49.048 46.3807 48.8404 46.6173 48.6272C46.739 48.5156 46.8551 48.404 46.9745 48.2923C47.4322 47.8637 47.8754 47.4206 48.304 46.9629C48.4156 46.8435 48.5272 46.7274 48.6389 46.6057C48.8521 46.3691 49.0597 46.128 49.2651 45.8835C49.405 45.7183 49.5423 45.5513 49.677 45.3823C49.7998 45.2283 49.9326 45.0809 50.0531 44.9235L53.1429 48.0133ZM48.8141 42.8283C48.4625 43.3195 48.0997 43.8006 47.7168 44.2638C47.6052 44.3989 47.4858 44.5295 47.3708 44.6623C47.0292 45.0597 46.6765 45.4452 46.3126 45.8188C46.1541 45.9824 45.993 46.1436 45.8293 46.3021C45.4572 46.666 45.0718 47.0187 44.6729 47.3603C44.54 47.4719 44.4094 47.5936 44.2744 47.7063C43.8111 48.0892 43.33 48.452 42.8389 48.8036C31.2835 57.0589 15.2237 54.3837 6.96839 42.8283C-1.28693 31.273 1.38828 15.2132 12.9436 6.95785C24.499 -1.29747 40.5588 1.37761 48.8141 12.9331C55.202 21.8745 55.202 33.8869 48.8141 42.8283Z" fill="#E3B080"/>
</svg>
