<svg width="67" height="67" viewBox="0 0 67 67" fill="none" xmlns="http://www.w3.org/2000/svg">
<path d="M12.3293 24.6587C19.1458 24.6587 24.6587 19.1193 24.6587 12.3294C24.6587 5.5309 19.1277 0 12.3293 0C5.5309 0 0 5.5309 0 12.3293C0 19.1224 5.52698 24.6587 12.3293 24.6587ZM18.8988 20.342C17.041 21.8679 14.7282 22.6959 12.3293 22.6959C9.98221 22.6959 7.65632 21.8997 5.75991 20.3421C5.75991 18.31 7.36202 16.8987 9.14367 16.8987H15.5149C17.2984 16.8985 18.8988 18.3114 18.8988 20.342ZM12.3293 1.96289C18.0455 1.96289 22.6959 6.61324 22.6959 12.3293C22.6959 14.6795 21.9085 16.8485 20.5855 18.5892C19.8754 16.4687 17.8716 14.9356 15.5149 14.9356H9.14367C6.78728 14.9356 4.7833 16.4687 4.07326 18.5892C2.75027 16.8485 1.96289 14.6795 1.96289 12.3293C1.96289 6.61324 6.61324 1.96289 12.3293 1.96289Z" fill="#E3B080"/>
<path d="M12.3293 66.6587C19.1458 66.6587 24.6587 61.1193 24.6587 54.3294C24.6587 47.5309 19.1277 42 12.3293 42C5.5309 42 0 47.5309 0 54.3293C0 61.1224 5.52698 66.6587 12.3293 66.6587ZM18.8988 62.342C17.041 63.8679 14.7282 64.6959 12.3293 64.6959C9.98221 64.6959 7.65632 63.8997 5.75991 62.3421C5.75991 60.31 7.36202 58.8987 9.14367 58.8987H15.5149C17.2984 58.8985 18.8988 60.3114 18.8988 62.342ZM12.3293 43.9629C18.0455 43.9629 22.6959 48.6132 22.6959 54.3293C22.6959 56.6795 21.9085 58.8485 20.5855 60.5892C19.8754 58.4687 17.8716 56.9356 15.5149 56.9356H9.14367C6.78728 56.9356 4.7833 58.4687 4.07326 60.5892C2.75027 58.8485 1.96289 56.6795 1.96289 54.3293C1.96289 48.6132 6.61324 43.9629 12.3293 43.9629Z" fill="#E3B080"/>
<path d="M54.6705 42.3411C47.8721 42.3411 42.3411 47.8721 42.3411 54.6705C42.3411 61.4662 47.8622 66.9998 54.6705 66.9998C61.4446 66.9998 66.9998 61.4935 66.9998 54.6705C66.9998 47.8721 61.4689 42.3411 54.6705 42.3411ZM61.2399 62.6832C57.4332 65.8099 51.9378 65.8346 48.101 62.6832C48.101 60.651 49.7031 59.2399 51.4847 59.2399H57.856C59.6398 59.2397 61.2399 60.6525 61.2399 62.6832ZM62.9266 60.9304C62.2165 58.8098 60.2127 57.2768 57.8561 57.2768H51.4849C49.1285 57.2768 47.1246 58.8098 46.4146 60.9304C45.0915 59.1897 44.3041 57.0207 44.3041 54.6705C44.3041 48.9543 48.9544 44.304 54.6706 44.304C60.3867 44.304 65.0371 48.9543 65.0371 54.6705C65.0369 57.0207 64.2495 59.1897 62.9266 60.9304Z" fill="#E3B080"/>
<path d="M54.3294 0C47.531 0 42 5.53103 42 12.3294C42 19.1251 47.5211 24.6587 54.3294 24.6587C61.1035 24.6587 66.6587 19.1524 66.6587 12.3294C66.6587 5.53103 61.1278 0 54.3294 0ZM60.8988 20.3421C57.0921 23.4688 51.5967 23.4936 47.7599 20.3421C47.7599 18.31 49.362 16.8988 51.1437 16.8988H57.5149C59.2987 16.8987 60.8988 18.3114 60.8988 20.3421ZM62.5855 18.5894C61.8754 16.4688 59.8716 14.9358 57.5151 14.9358H51.1438C48.7874 14.9358 46.7836 16.4688 46.0735 18.5894C44.7504 16.8487 43.963 14.6797 43.963 12.3294C43.963 6.61324 48.6134 1.96289 54.3296 1.96289C60.0456 1.96289 64.696 6.61324 64.696 12.3294C64.6959 14.6797 63.9085 16.8487 62.5855 18.5894Z" fill="#E3B080"/>
<path d="M15.7221 11.9055C17.5974 10.0303 17.5975 6.9951 15.7221 5.11989H15.7222C13.8471 3.2448 10.8118 3.24428 8.9366 5.11989C7.06112 6.99497 7.06099 10.03 8.93634 11.9055C10.8114 13.7806 13.8467 13.7809 15.7221 11.9055ZM10.3244 6.50765C11.4299 5.40215 13.2285 5.40215 14.334 6.50765H14.3342C15.4421 7.61577 15.4423 9.4092 14.334 10.5174C13.2287 11.6228 11.43 11.6228 10.3242 10.5174C9.21624 9.40933 9.21611 7.6159 10.3244 6.50765Z" fill="#E3B080"/>
<path d="M8.93651 54.2467C10.8069 56.1171 13.8512 56.1173 15.7221 54.2467C17.5929 52.3758 17.5929 49.3316 15.7221 47.4608H15.722C13.8513 45.5902 10.8071 45.5902 8.93638 47.4608C7.06562 49.3316 7.06562 52.3758 8.93651 54.2467ZM10.3243 48.8489C11.43 47.7434 13.2286 47.7434 14.3341 48.8489C15.4396 49.9542 15.4396 51.7532 14.3342 52.8587C13.2288 53.9643 11.4299 53.9643 10.3244 52.8587C9.21891 51.7532 9.21891 49.9542 10.3243 48.8489Z" fill="#E3B080"/>
<path d="M51.2776 5.11973C49.407 6.99049 49.407 10.0345 51.2776 11.9053C53.1503 13.778 56.1946 13.7742 58.0633 11.9053C59.9387 10.0301 59.9388 6.99494 58.0633 5.11973H58.0634C56.1926 3.2487 53.1484 3.24896 51.2776 5.11973ZM56.6754 10.5174C55.5701 11.6229 53.7714 11.623 52.6656 10.5174C51.5601 9.41191 51.5601 7.61312 52.6656 6.50762C53.771 5.40212 55.5701 5.40212 56.6754 6.50762H56.6756C57.7835 7.61587 57.7837 9.4093 56.6754 10.5174Z" fill="#E3B080"/>
<path d="M58.0633 47.4609C56.1927 45.5902 53.1484 45.5901 51.2776 47.461C49.407 49.3318 49.407 52.376 51.2777 54.2467C53.1485 56.1175 56.1925 56.1174 58.0634 54.2467C59.9342 52.3758 59.9342 49.3316 58.0633 47.4609ZM56.6755 52.8587C55.5702 53.9642 53.7714 53.9643 52.6656 52.8588C51.5602 51.7533 51.5603 49.9544 52.6655 48.8489C53.7711 47.7435 55.5698 47.7434 56.6754 48.8489C57.7809 49.9543 57.7809 51.7532 56.6755 52.8587Z" fill="#E3B080"/>
<path d="M39.6752 13.3108C40.2174 13.3108 40.6567 12.8714 40.6567 12.3293C40.6567 11.7873 40.2174 11.3479 39.6752 11.3479H27.3245C26.7823 11.3479 26.343 11.7873 26.343 12.3293C26.343 12.8714 26.7823 13.3108 27.3245 13.3108H39.6752Z" fill="#E3B080"/>
<path d="M27.3246 53.6891C26.7824 53.6891 26.3431 54.1284 26.3431 54.6705C26.3431 55.2127 26.7824 55.652 27.3246 55.652H39.6754C40.2175 55.652 40.6568 55.2127 40.6568 54.6705C40.6568 54.1284 40.2175 53.6891 39.6754 53.6891H27.3246Z" fill="#E3B080"/>
<path d="M13.3108 39.6752V27.3245C13.3108 26.7823 12.8715 26.343 12.3293 26.343C11.7872 26.343 11.3479 26.7823 11.3479 27.3245V39.6752C11.3479 40.2174 11.7872 40.6567 12.3293 40.6567C12.8715 40.6567 13.3108 40.2174 13.3108 39.6752Z" fill="#E3B080"/>
<path d="M55.6519 39.6752V27.3245C55.6519 26.7823 55.2126 26.343 54.6704 26.343C54.1283 26.343 53.689 26.7823 53.689 27.3245V39.6752C53.689 40.2174 54.1283 40.6567 54.6704 40.6567C55.2126 40.6567 55.6519 40.2174 55.6519 39.6752Z" fill="#E3B080"/>
</svg>
