<svg width="20" height="20" viewBox="0 0 20 20" fill="none" xmlns="http://www.w3.org/2000/svg">
<g clip-path="url(#clip0)">
<path d="M15.0495 4.76239L6.82418 9.8284C6.35871 10.1157 6.13844 10.6833 6.2884 11.2082L7.17777 14.3332C7.25375 14.5997 7.49086 14.7768 7.76367 14.7768C7.77887 14.7768 7.79422 14.7762 7.80961 14.7751C8.10125 14.7539 8.33203 14.5367 8.37082 14.2472L8.60207 12.5336C8.63324 12.3031 8.74434 12.0886 8.91461 11.9301L15.7023 5.62059C15.9074 5.4304 15.9345 5.11895 15.7655 4.89618C15.5962 4.67321 15.2886 4.61555 15.0495 4.76239ZM8.37188 11.3467C8.06688 11.6306 7.86816 12.0143 7.81238 12.427L7.70023 13.2582L7.05465 10.9897C7.00219 10.806 7.07945 10.6073 7.24234 10.5067L13.2681 6.79551L8.37188 11.3467Z" fill="white"/>
<path d="M19.6746 1.4602C19.4176 1.24238 19.063 1.18242 18.7489 1.30375L0.589058 8.3093C0.22941 8.44801 -0.00184034 8.78664 -4.4066e-06 9.17199C0.00187059 9.5577 0.236519 9.89445 0.598277 10.03L4.84007 11.6132L6.49472 16.9345C6.58558 17.227 6.81492 17.4543 7.10812 17.5425C7.40117 17.6306 7.71765 17.5676 7.95421 17.3741L10.4206 15.3635C10.5391 15.2669 10.7082 15.2621 10.8319 15.352L15.2804 18.5817C15.4405 18.698 15.6293 18.7579 15.8204 18.7579C15.9323 18.7579 16.045 18.7373 16.1531 18.6955C16.4455 18.5825 16.6582 18.3318 16.7218 18.0251L19.9808 2.34899C20.0492 2.01891 19.9319 1.67836 19.6746 1.4602ZM19.2006 2.18707L15.9417 17.8632C15.9299 17.9198 15.8891 17.9434 15.8659 17.9524C15.8424 17.9614 15.7961 17.9715 15.7488 17.937L11.3001 14.7071C11.1012 14.5628 10.8674 14.4911 10.634 14.4911C10.3794 14.4911 10.1251 14.5764 9.9173 14.7457L7.45035 16.7569C7.40644 16.7928 7.36085 16.7864 7.33765 16.7794C7.31429 16.7724 7.27261 16.7525 7.25566 16.6979L5.54296 11.1899C5.50636 11.0722 5.4173 10.978 5.30183 10.9349L0.877417 9.28363C0.811167 9.25883 0.797066 9.20715 0.796871 9.16813C0.796675 9.12945 0.810269 9.07801 0.875894 9.0527L19.0358 2.04719C19.0359 2.04715 19.036 2.04711 19.0361 2.04707C19.0951 2.0243 19.1387 2.05047 19.1595 2.06805C19.1803 2.08582 19.2135 2.12488 19.2006 2.18707Z" fill="white"/>
</g>
<defs>
<clipPath id="clip0">
<rect width="20" height="20" fill="white"/>
</clipPath>
</defs>
</svg>
