<svg width="14" height="14" viewBox="0 0 14 14" fill="none" xmlns="http://www.w3.org/2000/svg">
<path d="M7 14C10.866 14 14 10.866 14 7C14 3.13401 10.866 0 7 0C3.13401 0 0 3.13401 0 7C0 10.866 3.13401 14 7 14Z" fill="white"/>
<path d="M3.20305 6.84821L9.95223 4.24596C10.2655 4.13279 10.5391 4.32238 10.4376 4.79604L10.4382 4.79546L9.28898 10.2094C9.20382 10.5932 8.97573 10.6865 8.65665 10.5057L6.90664 9.21596L6.06256 10.0291C5.96923 10.1225 5.89048 10.2012 5.70964 10.2012L5.83389 8.42029L9.07723 5.49021C9.2184 5.36596 9.04573 5.29596 8.85965 5.41963L4.85156 7.94313L3.12372 7.40413C2.74864 7.28513 2.74047 7.02904 3.20305 6.84821Z" fill="#1B304F"/>
</svg>
