<svg width="7" height="7" viewBox="0 0 7 7" fill="none" xmlns="http://www.w3.org/2000/svg">
<path d="M0.449219 3.59375C1.68771 3.59375 2.69531 4.60135 2.69531 5.83984C2.69531 6.0879 2.89643 6.28906 3.14453 6.28906C3.39263 6.28906 3.59375 6.0879 3.59375 5.83984C3.59375 4.60135 4.60135 3.59375 5.83984 3.59375C6.08795 3.59375 6.28906 3.39259 6.28906 3.14453C6.28906 2.89647 6.08795 2.69531 5.83984 2.69531C4.60135 2.69531 3.59375 1.68771 3.59375 0.449219C3.59375 0.20116 3.39263 0 3.14453 0C2.89643 0 2.69531 0.20116 2.69531 0.449219C2.69531 1.68771 1.68771 2.69531 0.449219 2.69531C0.201115 2.69531 0 2.89647 0 3.14453C0 3.39259 0.201115 3.59375 0.449219 3.59375ZM3.14453 2.06748C3.41015 2.50817 3.78089 2.87895 4.22153 3.14453C3.78085 3.41011 3.41011 3.78089 3.14453 4.22158C2.87891 3.78089 2.50817 3.41011 2.06753 3.14453C2.50817 2.87895 2.87891 2.50817 3.14453 2.06748Z" fill="#1B304F"/>
</svg>
