<svg width="7" height="7" viewBox="0 0 7 7" fill="none" xmlns="http://www.w3.org/2000/svg">
<path d="M0.449249 3.59363C1.68775 3.59363 2.69534 4.60123 2.69534 5.83972C2.69534 6.08778 2.89646 6.28894 3.14456 6.28894C3.39267 6.28894 3.59378 6.08778 3.59378 5.83972C3.59378 4.60123 4.60138 3.59363 5.83987 3.59363C6.08798 3.59363 6.28909 3.39247 6.28909 3.14441C6.28909 2.89635 6.08798 2.69519 5.83987 2.69519C4.60138 2.69519 3.59378 1.68759 3.59378 0.449097C3.59378 0.201038 3.39267 -0.00012207 3.14456 -0.00012207C2.89646 -0.00012207 2.69534 0.201038 2.69534 0.449097C2.69534 1.68759 1.68775 2.69519 0.449249 2.69519C0.201146 2.69519 3.05176e-05 2.89635 3.05176e-05 3.14441C3.05176e-05 3.39247 0.201146 3.59363 0.449249 3.59363ZM3.14456 2.06736C3.41018 2.50805 3.78093 2.87883 4.22156 3.14441C3.78088 3.40999 3.41014 3.78077 3.14456 4.22146C2.87894 3.78077 2.5082 3.40999 2.06756 3.14441C2.5082 2.87883 2.87894 2.50805 3.14456 2.06736Z" fill="white"/>
</svg>
