<svg width="14" height="14" viewBox="0 0 14 14" fill="none" xmlns="http://www.w3.org/2000/svg">
<path d="M7 14C10.866 14 14 10.866 14 7C14 3.13401 10.866 0 7 0C3.13401 0 0 3.13401 0 7C0 10.866 3.13401 14 7 14Z" fill="white"/>
<path fill-rule="evenodd" clip-rule="evenodd" d="M6.73559 10.0701H7.285C7.285 10.0701 7.45096 10.0519 7.53569 9.96051C7.61368 9.87666 7.61118 9.71918 7.61118 9.71918C7.61118 9.71918 7.60045 8.98197 7.9426 8.87341C8.27989 8.76648 8.713 9.58592 9.17207 9.90099C9.51922 10.1394 9.78301 10.0872 9.78301 10.0872L11.0105 10.0701C11.0105 10.0701 11.6526 10.0305 11.3481 9.52565C11.3232 9.48434 11.1708 9.15218 10.4355 8.46962C9.66584 7.75525 9.76891 7.87079 10.696 6.63508C11.2607 5.88252 11.4864 5.42308 11.4159 5.2263C11.3486 5.03887 10.9334 5.08841 10.9334 5.08841L9.55129 5.09702C9.55129 5.09702 9.44884 5.08305 9.37285 5.12847C9.2986 5.17301 9.25081 5.27683 9.25081 5.27683C9.25081 5.27683 9.03207 5.85919 8.74033 6.35445C8.12491 7.39949 7.87884 7.45465 7.77826 7.38976C7.5443 7.23852 7.6027 6.7822 7.6027 6.45802C7.6027 5.44529 7.7563 5.02303 7.3036 4.91372C7.15336 4.87741 7.0428 4.85345 6.6586 4.84958C6.16546 4.84446 5.74807 4.85108 5.51173 4.96688C5.35451 5.04387 5.23322 5.21544 5.30709 5.2253C5.39843 5.23753 5.60532 5.28108 5.715 5.43044C5.85663 5.6231 5.85164 6.05584 5.85164 6.05584C5.85164 6.05584 5.93299 7.24801 5.66159 7.39612C5.47529 7.4977 5.21974 7.29031 4.67108 6.34222C4.38994 5.85657 4.17769 5.31976 4.17769 5.31976C4.17769 5.31976 4.13676 5.21943 4.06376 5.16578C3.97517 5.10077 3.85139 5.08005 3.85139 5.08005L2.53806 5.08866C2.53806 5.08866 2.3409 5.09415 2.26853 5.17988C2.20414 5.25612 2.26342 5.41384 2.26342 5.41384C2.26342 5.41384 3.29162 7.81938 4.45583 9.03164C5.52334 10.1431 6.73559 10.0701 6.73559 10.0701Z" fill="#1B304F"/>
</svg>
