<svg width="20" height="20" viewBox="0 0 20 20" fill="none" xmlns="http://www.w3.org/2000/svg">
<path d="M17.4219 0H2.57812C1.15652 0 0 1.15652 0 2.57812V17.4219C0 18.8435 1.15652 20 2.57812 20H17.4219C18.8435 20 20 18.8435 20 17.4219V2.57812C20 1.15652 18.8435 0 17.4219 0ZM19.2188 17.4219C19.2188 18.4127 18.4127 19.2188 17.4219 19.2188H2.57812C1.58734 19.2188 0.78125 18.4127 0.78125 17.4219V2.57812C0.78125 1.58734 1.58734 0.78125 2.57812 0.78125H17.4219C18.4127 0.78125 19.2188 1.58734 19.2188 2.57812V17.4219Z" fill="white"/>
<g clip-path="url(#clip0)">
<path d="M16.378 12.1788C16.0734 11.8138 15.7294 11.4879 15.3966 11.1728C15.2797 11.062 15.1588 10.9475 15.0423 10.8338C15.0422 10.8337 15.0422 10.8337 15.0422 10.8337C14.8855 10.6809 14.8088 10.5724 14.8008 10.4923C14.7929 10.4135 14.8467 10.2967 14.9705 10.124C15.1556 9.86421 15.3529 9.604 15.5438 9.35239C15.7134 9.12871 15.8888 8.89741 16.0569 8.6648L16.0946 8.61257C16.4226 8.15861 16.7617 7.6892 16.9435 7.11716C16.9954 6.95315 17.0493 6.71045 16.9193 6.49739C16.7892 6.28427 16.5481 6.2211 16.3782 6.19217C16.2952 6.17796 16.2165 6.17678 16.1432 6.17678L14.0157 6.17489C13.6478 6.16877 13.3927 6.34311 13.2536 6.69322C13.1423 6.97284 13.0109 7.29689 12.8586 7.60429C12.5672 8.19774 12.197 8.88125 11.6604 9.45074L11.6366 9.47612C11.6001 9.51511 11.5404 9.57888 11.5097 9.5935C11.4516 9.55697 11.3845 9.34804 11.3876 9.23858C11.3877 9.23587 11.3877 9.23319 11.3877 9.23051L11.3858 6.77222C11.3858 6.75972 11.3849 6.74723 11.3833 6.73484C11.3355 6.38413 11.2425 6.03254 10.6874 5.923C10.6696 5.91947 10.6515 5.91772 10.6334 5.91772H8.42036C8.004 5.91772 7.78377 6.10839 7.60721 6.31511C7.55611 6.37538 7.42032 6.53539 7.4895 6.73101C7.5595 6.92895 7.76808 6.96847 7.83655 6.98143C8.07772 7.0272 8.20243 7.16351 8.24104 7.4241C8.31736 7.93042 8.32671 8.47208 8.27052 9.12787C8.25485 9.30393 8.2257 9.43775 8.17867 9.54904C8.16566 9.57986 8.15423 9.59895 8.14624 9.61018C8.1335 9.60504 8.11368 9.5952 8.08622 9.57641C7.91675 9.46045 7.78902 9.28017 7.66551 9.10588C7.17217 8.40935 6.7572 7.64006 6.39673 6.75371C6.24828 6.3905 5.96921 6.18764 5.61144 6.18239C4.92982 6.17104 4.2994 6.17131 3.68482 6.18326C3.39495 6.18829 3.19168 6.27954 3.08055 6.45451C2.96929 6.62981 2.97337 6.85332 3.09269 7.11894C3.94571 9.01578 4.72025 10.3957 5.60401 11.5932C6.22627 12.4362 6.85266 13.0214 7.57528 13.4349C8.3345 13.8692 9.19075 14.0821 10.1841 14.0821C10.2971 14.0821 10.412 14.0793 10.5284 14.0738C11.1413 14.0458 11.3906 13.8021 11.4178 13.2052C11.4331 12.8897 11.4682 12.6342 11.59 12.4121C11.6241 12.35 11.6625 12.3083 11.6928 12.3007C11.7251 12.2926 11.7822 12.3124 11.8457 12.3536C11.9618 12.429 12.0618 12.5313 12.144 12.6211C12.2274 12.7123 12.3116 12.8066 12.3931 12.8977C12.5666 13.0918 12.7459 13.2924 12.9338 13.4839C13.3588 13.9171 13.8488 14.1158 14.3906 14.0742L16.3377 14.0751C16.3377 14.0751 16.3377 14.0751 16.3378 14.0751C16.3439 14.0751 16.3501 14.0749 16.3563 14.0745C16.5809 14.0595 16.775 13.9352 16.8891 13.7333C17.0264 13.4901 17.0243 13.1821 16.8834 12.9091C16.7364 12.6253 16.5457 12.3809 16.378 12.1788ZM16.4034 13.459C16.3766 13.5066 16.3435 13.5152 16.3264 13.5173L14.3798 13.5164C14.3797 13.5164 14.3796 13.5164 14.3796 13.5164C14.3719 13.5164 14.3642 13.5167 14.3566 13.5174C13.9731 13.5493 13.6471 13.4145 13.3319 13.0932C13.1531 12.9111 12.9781 12.7154 12.809 12.5261C12.7265 12.4338 12.6413 12.3384 12.5557 12.2447C12.4494 12.1287 12.3182 11.9954 12.1495 11.8859C11.8969 11.722 11.6876 11.7269 11.5566 11.7599C11.4269 11.7926 11.2425 11.8858 11.101 12.1441C10.9177 12.4782 10.8773 12.8386 10.8608 13.1792C10.8513 13.3874 10.8161 13.4424 10.8014 13.4564C10.7821 13.4747 10.7177 13.5069 10.5027 13.5167C9.46979 13.5653 8.60294 13.3803 7.85227 12.9508C7.19924 12.5772 6.62743 12.0405 6.0528 11.262C5.19352 10.0978 4.43746 8.74948 3.60143 6.89037C3.57113 6.82302 3.56178 6.781 3.55907 6.75849C3.5804 6.75149 3.62207 6.74228 3.69513 6.74094C4.30348 6.72915 4.9273 6.72883 5.60277 6.74009C5.69525 6.74146 5.80055 6.76921 5.88029 6.96431C6.25692 7.89042 6.69199 8.69638 7.21043 9.42832C7.34808 9.6226 7.51941 9.86443 7.77122 10.0367C8.00187 10.1947 8.18904 10.1871 8.30547 10.153C8.42195 10.1188 8.58361 10.024 8.69249 9.76615C8.76274 9.59998 8.8052 9.41287 8.82623 9.17646C8.8863 8.475 8.87564 7.89181 8.79273 7.34174C8.7343 6.94763 8.53081 6.66293 8.21025 6.51754C8.26718 6.4879 8.33133 6.47554 8.42042 6.47554H10.6046C10.7274 6.5031 10.7518 6.53548 10.7601 6.54655C10.7955 6.59361 10.8157 6.70493 10.8281 6.79191L10.83 9.22753C10.825 9.46102 10.9385 9.97886 11.3249 10.1209C11.3281 10.122 11.3313 10.1231 11.3344 10.1242C11.6862 10.2391 11.9189 9.99081 12.0438 9.8574L12.066 9.83372C12.6538 9.20987 13.0496 8.48094 13.3588 7.85107C13.52 7.52582 13.6565 7.18938 13.7719 6.89937C13.8297 6.75393 13.8822 6.72997 14.0076 6.73263C14.0094 6.73268 14.0111 6.73268 14.0128 6.73268L16.143 6.73457C16.1926 6.73457 16.2443 6.73514 16.2844 6.74201C16.3859 6.75929 16.4277 6.78034 16.4415 6.78906C16.4429 6.80522 16.4426 6.85171 16.4119 6.94872C16.2574 7.43514 15.9588 7.84842 15.6426 8.28598L15.6049 8.33828C15.4406 8.56557 15.2672 8.79424 15.0995 9.01543C14.9062 9.2703 14.7063 9.53381 14.5169 9.79976C14.1118 10.3649 14.1474 10.74 14.6529 11.233C14.7724 11.3497 14.8948 11.4657 15.0133 11.5778C15.3491 11.8959 15.6663 12.1963 15.9494 12.5356C16.0976 12.7142 16.2656 12.9288 16.388 13.1653C16.4519 13.2891 16.4362 13.4009 16.4034 13.459Z" fill="white"/>
</g>
<defs>
<clipPath id="clip0">
<rect width="14" height="14" fill="white" transform="translate(3 3)"/>
</clipPath>
</defs>
</svg>
