<svg width="24" height="24" viewBox="0 0 24 24" fill="none" xmlns="http://www.w3.org/2000/svg">
<path d="M20.9062 0H3.09375C1.38783 0 0 1.38783 0 3.09375V20.9062C0 22.6122 1.38783 24 3.09375 24H20.9062C22.6122 24 24 22.6122 24 20.9062V3.09375C24 1.38783 22.6122 0 20.9062 0ZM23.0625 20.9062C23.0625 22.0952 22.0952 23.0625 20.9062 23.0625H3.09375C1.90481 23.0625 0.9375 22.0952 0.9375 20.9062V3.09375C0.9375 1.90481 1.90481 0.9375 3.09375 0.9375H20.9062C22.0952 0.9375 23.0625 1.90481 23.0625 3.09375V20.9062Z" fill="#1B304F"/>
<g clip-path="url(#clip0)">
<path d="M20.2002 14.8013C19.8087 14.3321 19.3664 13.9131 18.9385 13.508C18.7882 13.3655 18.6327 13.2183 18.4829 13.0721C18.4829 13.072 18.4829 13.072 18.4828 13.072C18.2814 12.8755 18.1828 12.736 18.1725 12.633C18.1623 12.5317 18.2315 12.3815 18.3907 12.1595C18.6286 11.8255 18.8823 11.4909 19.1277 11.1674C19.3458 10.8798 19.5713 10.5825 19.7874 10.2834L19.836 10.2162C20.2577 9.63257 20.6937 9.02904 20.9273 8.29357C20.994 8.0827 21.0633 7.77065 20.8962 7.49671C20.729 7.22271 20.419 7.14149 20.2006 7.1043C20.0939 7.08602 19.9926 7.08451 19.8984 7.08451L17.163 7.08208C16.6901 7.07421 16.362 7.29836 16.1832 7.7485C16.0401 8.10801 15.8711 8.52465 15.6753 8.91988C15.3007 9.68288 14.8248 10.5617 14.1349 11.2939L14.1042 11.3265C14.0572 11.3766 13.9805 11.4586 13.9411 11.4774C13.8663 11.4305 13.7801 11.1618 13.784 11.0211C13.7841 11.0176 13.7842 11.0142 13.7842 11.0107L13.7817 7.85007C13.7817 7.834 13.7806 7.81794 13.7785 7.80201C13.7171 7.3511 13.5975 6.89906 12.8839 6.75822C12.861 6.75368 12.8377 6.75143 12.8144 6.75143H9.96904C9.43372 6.75143 9.15057 6.99658 8.92356 7.26236C8.85786 7.33985 8.68327 7.54558 8.77221 7.79709C8.86222 8.05159 9.13039 8.10239 9.21842 8.11905C9.5285 8.1779 9.68885 8.35316 9.73849 8.6882C9.83661 9.33919 9.84863 10.0356 9.77639 10.8788C9.75624 11.1051 9.71876 11.2772 9.6583 11.4203C9.64156 11.4599 9.62687 11.4844 9.6166 11.4989C9.60022 11.4923 9.57473 11.4796 9.53943 11.4555C9.32153 11.3064 9.15732 11.0746 8.99852 10.8505C8.36423 9.95495 7.83069 8.96586 7.36723 7.82627C7.17636 7.35929 6.81756 7.09846 6.35757 7.09171C5.48119 7.07712 4.67067 7.07747 3.88049 7.09284C3.5078 7.09931 3.24645 7.21662 3.10357 7.44159C2.96052 7.66698 2.96576 7.95434 3.11918 8.29585C4.21592 10.7347 5.21176 12.5088 6.34801 14.0484C7.14806 15.1324 7.95342 15.8848 8.8825 16.4163C9.85865 16.9748 10.9595 17.2485 12.2367 17.2485C12.3819 17.2485 12.5297 17.2449 12.6794 17.2378C13.4674 17.2019 13.788 16.8885 13.823 16.121C13.8426 15.7154 13.8877 15.3869 14.0443 15.1014C14.0881 15.0215 14.1376 14.9679 14.1765 14.9581C14.2179 14.9478 14.2914 14.9731 14.373 15.0262C14.5224 15.1231 14.6509 15.2546 14.7566 15.37C14.8638 15.4873 14.9721 15.6085 15.0769 15.7257C15.2999 15.9752 15.5305 16.2332 15.7721 16.4793C16.3185 17.0363 16.9484 17.2918 17.6451 17.2383L20.1484 17.2394C20.1485 17.2394 20.1485 17.2394 20.1486 17.2394C20.1565 17.2394 20.1645 17.2392 20.1724 17.2387C20.4611 17.2194 20.7108 17.0596 20.8574 16.8C21.0339 16.4874 21.0312 16.0914 20.8501 15.7404C20.6611 15.3754 20.4159 15.0613 20.2002 14.8013ZM20.233 16.4474C20.1984 16.5085 20.1559 16.5197 20.1339 16.5223L17.6311 16.5212C17.6311 16.5212 17.631 16.5212 17.6309 16.5212C17.621 16.5212 17.6111 16.5216 17.6013 16.5224C17.1082 16.5635 16.6891 16.3902 16.2839 15.9771C16.054 15.7429 15.829 15.4912 15.6115 15.2479C15.5055 15.1293 15.396 15.0066 15.2858 14.8861C15.1493 14.737 14.9805 14.5656 14.7636 14.4248C14.4389 14.214 14.1698 14.2204 14.0013 14.2628C13.8346 14.3049 13.5976 14.4247 13.4156 14.7568C13.1799 15.1863 13.1279 15.6498 13.1068 16.0876C13.0945 16.3553 13.0493 16.426 13.0304 16.444C13.0056 16.4676 12.9227 16.509 12.6464 16.5216C11.3183 16.584 10.2038 16.3462 9.23863 15.794C8.39903 15.3136 7.66384 14.6236 6.92503 13.6227C5.82024 12.1258 4.84817 10.3923 3.77326 8.00198C3.73431 7.91539 3.72229 7.86136 3.71881 7.83242C3.74623 7.82342 3.79981 7.81158 3.89375 7.80985C4.6759 7.7947 5.47796 7.79428 6.34643 7.80876C6.46533 7.81052 6.60071 7.8462 6.70323 8.09704C7.18747 9.28776 7.74685 10.324 8.41341 11.2651C8.59039 11.5148 8.81068 11.8258 9.13443 12.0473C9.43097 12.2503 9.67162 12.2406 9.82132 12.1968C9.97108 12.1529 10.1789 12.0309 10.3189 11.6994C10.4092 11.4858 10.4638 11.2452 10.4909 10.9412C10.5681 10.0394 10.5544 9.28955 10.4478 8.58231C10.3727 8.0756 10.111 7.70955 9.6989 7.52262C9.7721 7.48452 9.85457 7.46862 9.96911 7.46862H12.7773C12.9353 7.50406 12.9666 7.54569 12.9773 7.55993C13.0228 7.62043 13.0488 7.76355 13.0647 7.87538L13.0671 11.0069C13.0608 11.3071 13.2067 11.9729 13.7034 12.1555C13.7075 12.157 13.7116 12.1584 13.7157 12.1597C14.168 12.3075 14.4671 11.9883 14.6277 11.8167L14.6563 11.7863C15.4121 10.9842 15.9209 10.047 16.3185 9.23717C16.5257 8.81898 16.7012 8.38642 16.8496 8.01355C16.9239 7.82655 16.9915 7.79575 17.1527 7.79917C17.1549 7.79924 17.1571 7.79924 17.1593 7.79924L19.8982 7.80166C19.9619 7.80166 20.0284 7.8024 20.0799 7.81122C20.2104 7.83344 20.2642 7.86051 20.2819 7.87173C20.2837 7.89251 20.2833 7.95227 20.2439 8.07701C20.0452 8.7024 19.6613 9.23376 19.2548 9.79633L19.2063 9.86358C18.9951 10.1558 18.7721 10.4498 18.5565 10.7342C18.3079 11.0619 18.051 11.4007 17.8074 11.7426C17.2866 12.4693 17.3324 12.9515 17.9823 13.5854C18.1359 13.7354 18.2933 13.8845 18.4456 14.0287C18.8774 14.4377 19.2852 14.8239 19.6492 15.2601C19.8397 15.4898 20.0557 15.7657 20.2132 16.0697C20.2953 16.2289 20.2752 16.3726 20.233 16.4474Z" fill="#1B304F"/>
</g>
<defs>
<clipPath id="clip0">
<rect width="18" height="18" fill="white" transform="translate(3 3)"/>
</clipPath>
</defs>
</svg>
