<svg width="17" height="17" viewBox="0 0 17 17" fill="none" xmlns="http://www.w3.org/2000/svg">
<path d="M6.90625 3.1875H5.84375V5.84375H3.1875V6.90625H5.84375V9.5625H6.90625V6.90625H9.5625V5.84375H6.90625V3.1875Z" fill="white"/>
<path d="M15.9242 13.2947L13.232 10.6024L11.1612 9.74688C11.8507 8.76637 12.2201 7.59662 12.2188 6.39795C12.2188 3.17569 9.59726 0.554199 6.375 0.554199C3.15274 0.554199 0.53125 3.17569 0.53125 6.39795C0.53125 9.62021 3.15274 12.2417 6.375 12.2417C7.58414 12.2431 8.7636 11.8673 9.74907 11.1666L10.6024 13.2319L13.2945 15.9244C13.6433 16.2731 14.1162 16.469 14.6094 16.469C15.1025 16.469 15.5755 16.2731 15.9242 15.9244C16.2729 15.5756 16.4688 15.1027 16.4688 14.6095C16.4688 14.1164 16.2729 13.6434 15.9242 13.2947ZM1.59375 6.39795C1.59375 3.76162 3.73867 1.6167 6.375 1.6167C9.01133 1.6167 11.1563 3.76162 11.1563 6.39795C11.1563 9.03428 9.01133 11.1792 6.375 11.1792C3.73867 11.1792 1.59375 9.03431 1.59375 6.39795ZM15.1729 15.173C15.0233 15.3222 14.8207 15.406 14.6094 15.406C14.3981 15.406 14.1955 15.3222 14.0459 15.173L11.5035 12.6306L10.7101 10.7103L12.6305 11.5036L15.1729 14.046C15.3221 14.1956 15.4059 14.3983 15.4059 14.6095C15.4059 14.8208 15.3221 15.0234 15.1729 15.173Z" fill="white"/>
</svg>
